<mxfile host="app.diagrams.net" agent="Mozilla/5.0 (X11; Linux x86_64; rv:141.0) Gecko/20100101 Firefox/141.0" version="28.0.7">
  <diagram name="Page-1" id="9PwfHeqZy9kPOh0sey0U">
    <mxGraphModel dx="1426" dy="794" grid="1" gridSize="10" guides="1" tooltips="1" connect="1" arrows="1" fold="1" page="1" pageScale="1" pageWidth="850" pageHeight="1100" math="0" shadow="0">
      <root>
        <mxCell id="0" />
        <mxCell id="1" parent="0" />
        <mxCell id="EkTLwEob2Fp1knODdt_H-18" value="" style="rounded=0;whiteSpace=wrap;html=1;fillColor=#d5e8d4;strokeColor=#82b366;opacity=70;" parent="1" vertex="1">
          <mxGeometry x="420" y="360" width="180" height="460" as="geometry" />
        </mxCell>
        <mxCell id="EkTLwEob2Fp1knODdt_H-17" value="" style="rounded=0;whiteSpace=wrap;html=1;fillColor=#f8cecc;strokeColor=#b85450;opacity=70;" parent="1" vertex="1">
          <mxGeometry x="240" y="360" width="180" height="460" as="geometry" />
        </mxCell>
        <mxCell id="EkTLwEob2Fp1knODdt_H-20" value="" style="endArrow=none;dashed=1;html=1;rounded=0;exitX=0;exitY=0.5;exitDx=0;exitDy=0;entryX=1;entryY=0.5;entryDx=0;entryDy=0;" parent="1" edge="1">
          <mxGeometry width="50" height="50" relative="1" as="geometry">
            <mxPoint x="240" y="534" as="sourcePoint" />
            <mxPoint x="600" y="534" as="targetPoint" />
          </mxGeometry>
        </mxCell>
        <mxCell id="EkTLwEob2Fp1knODdt_H-21" value="&lt;b&gt;No Verbalized Confidence&lt;/b&gt;" style="rounded=0;whiteSpace=wrap;html=1;fillColor=#f8cecc;strokeColor=#b85450;" parent="1" vertex="1">
          <mxGeometry x="240" y="340" width="180" height="20" as="geometry" />
        </mxCell>
        <mxCell id="EkTLwEob2Fp1knODdt_H-22" value="&lt;b&gt;With Verbalized Confidence&lt;/b&gt;" style="rounded=0;whiteSpace=wrap;html=1;fillColor=#d5e8d4;strokeColor=#82b366;" parent="1" vertex="1">
          <mxGeometry x="420" y="340" width="180" height="20" as="geometry" />
        </mxCell>
        <mxCell id="EkTLwEob2Fp1knODdt_H-23" value="" style="shape=image;imageAspect=0;aspect=fixed;verticalLabelPosition=bottom;verticalAlign=top;image=data:image/png,iVBORw0KGgoAAAANSUhEUgAAAmoAAAJqCAMAAACsDJxNAAADAFBMVEVHcEwbGQQJCQIeHAU6Ngrc3CzKvCNUVAAAAAAqJwYAAACUihkWFAMgIAVTTg5CPgslIwcpJweOghlHQgwAAAAzLwkAAAAjIQYVFAMAAABIQg46NgoAAAAPDgIAAAAAAAAXFwNXUQ5aUw9zahEKCQFmXhEAAACWiRxEPwsAAABMRQxwaROLgBdiWxAcGgQuKwenlx+YjBkAAABYUg5UUA5yahNtZhIlIQVOSA0AAAAlIgYAAAAAAABrYxJBPApmYBEwLAh9dBZQSw1NSA15bhQAAAAAAAAAAAA9OQopJgdaVA9eVxBhWxAHBgEAAAAAAAAAAABlXhFDPgtpYRFRSg1CPQtZUw98cxQAAAAAAABiXBHy4yaXixhEQAuYjhpGQQwAAABDPgtKRQxMRg12bhT86yv96ytpYhI6Ngo5NQkwLAj76iv86isAAAD86ytHQww7Nwp0bBRDPQx8cxVaVA8oJQdDPQs6MwpYUBH96it/dhU1MQn+6yosKQc6NAsxLQhCPQvSwCX86ys9OQr86ituZhKEexZ1bBONhhn76yv96iv96yv86iv04Sr86iv86yv96iv86iv86Sv86iv86iv86iv86iv86iv86isAAAABAQAFBQH76SsDAwALCgIIBwEVEwMiHwYSEQP45ip+dRXy4SkNDAIQDwK6rSBuZhMmIwb35SobGQWYjRqpnR3v3ikpJgfHuSL55yqekxssKQfFtyHczSbq2Sh3bhRyaRMYFgRIQwy1qB+VihlkXRFTTQ45NQrVxiTk1CfXyCUeGwWvox6JgBfezyahlhtNRw1QSg3MvSPKuyJhWhCRhxm9ryDayyXi0ifh0SYvLAjAsiGGfReypR7TwyTn1yd1bBRBPAs2MgmkmByPhRjt3CisoB1KRQ2Mghi4qx/z4ilrYxJXUQ+bkBp5cBUyLwjs2yjPwCNnXxGEehYfHAXo2CheVxAzMAnDtSFDPgtFQAxbVA8+Ogv04yqBeBanmxw8OAo7NwpZUw97chV9dBXQwSNHcEzRTWpDAAABAHRSTlMA+w767QMIAQT3+xT7CrvnFBoo1o/wVfr9KinmgvyjdwfUrjYfdtsf3/1BfUKZ9PMQNj/JamSH7s649zhfnbZV1lLI3D/Nwfap34iiXTSaree8grBLYZNdTPEOEGKQS8xo7uWkSlF2ktPz6IeX66hynJBXbMLoaE0gbYS2KMsxw78XR961pHOYUjXTYvke9bDL8OHdw+ny6P////////////////////////////////////////////////////////////////////////////////////////////////////////////////////////////////////////8AZ5bX6wAAIABJREFUeNrs3W9MVtcdwHFZ/TOiU2djakpMrIYgE6um/kuT1lZ9sf55Y7UzWbs2WhPbvlmddlvabOti3Hyz9+c+f3gAFZ8HEBAciAJaEZQHiqggqGAdKq1TFAaltmozV11afc659z5/ee6930+avjO25/yec+/v9zvn3FGjAAAAAAAAAAAAAAAAAAAAAAAAAAAAAAAAAAAAAAAAAAAAAAAAAAAAAAAAAAAAAAAAAAAAAAAAAAAAAAAAAAAAAAAAAAAAAAAAAAAAAAAAAAAAAAAAAAAAAAAAAAAAAEsZ90bGlJUrl726MD09ffPatcvWrJn1ZMY4xgUxMT9r8+Jtq5bOHp2astunSbh2p6ROTXv87Ylz0zeMZ7wQtrELNj+3ZcXUCfeCyasZybz3T+a9f2k5qWlLJ258kZCDqSB7a9OWSal5WqTuhZz3sbTlc1+dzFhC5R9vbnvqve+DzOvVovL9H5+QNnHOFEYVDxuT9dyKVJ8WZYRJPDF75qJfM764/8jcvnp9nxZH7nnL52Qwzk5fzdauWndASwD31C2LZjDeTpWxeEWR5nZriZI/euYvGHXnLWfbV6/zaQmWmamlLE0fy+g7KM4WLX1MGzHTVsz5GXPgjNezZ0Ywzu7bvfVl0lL7x9kTWlLInz1nDPNhWwtWpWpJJOWZlcyJLctnH63P1pJN6syfMzM2k7UlRUtK7q2vMjs2WtA2jXZpyWve3PnMkS1krI5lJuDNO5Cb9z+xLP1OWz6LebK8lUt3a1EtafkFh4PX7rbcOtH8XeuRSo/4kR03Wpv9xb0Ndy4H+w+4onyOvs5cWdqiSRFv1vCVXgy0VNcNC5MKK9q62i8PHo14uVzyMrvHLVtEm/NeRJOeff5ajf+YR0SmpLl8f7Agosfrs3NpWlky0BZPDX+ycwbPdnWUiegV7m25WRr+MzXlFXpW1gu01DA3OrpOXy4+JWLqgv96sCjMYJvwDi0rKxm3+NnwXsrPV9VXivioqzkU3kmF6e/MYAatYvO8cKb29P6eXSKuPM3tg+F0KlJ+RXvUEt5cF0YGENxzSiTE8IlAGLvKU9OZx6SXtcL0K1pfoGdYJFLTnX2mg+39NcxlUhu/3OzW2qLAgEckXmvDYXN5qde19c/MZ/KmnZtM9tTzhurLxEg52X3aZLLyyU+Y0+S01lwhzXfbP3Jxdl9zIMdcfsArWzKa8pSpCn1p+w2RBMr8Q6Zy0jT68ElXSZs7zcyD83KTSBqVDblm1uCJ9A+SysrRJmatoHuXSCoe/0XjHCHzsd8zv0lj7Mx8475To18kobqA8X+69i67wpPEi8bNgfxAq0hSJTUFxo3R3zLLSWD+FsNSWk57iUhiZV2GlV3vu5OZ6RFf0gzP2xUl2yua5KWtvt9wYVvIXI9s4rnNqGTQ1z0srKDtolGwvcDCNoIWGCWeueU7hFW0nTMq6P6OGR8pc6YZvaMNCyvxf2mQRX/8UyZ9JIx/XL8olb+zRFiM57jBRqMPn2TeE2+7/kZbd+0RYUGFe3S7o97pZAcJt1G/9BlsFRZ19axu8cb1PA/RxPYHntJ9eBacERZ26pDur2gJD9EEmqXbH8hvKBTWVq/7yjadg/AJk66XebqGTgrLu3RH7ynq/YAYSEzZdqbe6YHcE8IW6gZ1G/DsLEqA+Sv08s6zl4RdFOt8UCFzyR+JhHiboncPx769wkau1ur1RDlRFWcbntBb0gqFvZzRuYbB9xrRENeEYLfOKfUOYTudOnWPzF9ySVb8vKI+qeKy3ZJ23y2d7sGfZhAScUo9J6rrtkdPCJs60qiOtZc4KBqnDoF6zA9VCvva41bfNMmpgzgYP0ndHugSttasPsX3NF2qmMtQ74Is7RA2V3JFXfTgu4+xLqepjxDc3CXsr0XZqJr+B6IjlmYpy2m+GuEITcojfG667wmJtL5m4RAlynMubo6/x0yW8gOeg5XCMTxnibWRi7TaQuEkXaoXNjen32NSuM1S7RP0dguHaVJ96yWTWIuBlaqbIPP8wnFO9fMMjV9GoIq0gjrhQJeukIfGq56myj2/rRSOpEwOiLUoewSqym3jJeFU3YpNBz5qudH0PVUXKd/cIZzruKL9Pp0eVcTmq/qeAY9wMr/8uHXmBHrvERqr2Mvh6hYOt1exX/LpyURNRBT709zHheN9qqg1fsihvUisVhRuTUbacEWz/56e6uZjNtz6cUyxhe2lGQRO2BbLDxa7PzcsB3SUBxpPP3SIMvtoaf9/Gq9U1fgrPDaPtb9wtiVci7IjibTh6qpv9K8s9e37rLzVzrH2AbETZotdfgLSXa8z+J29QZMfeC263Vtp21ijHRpek0B+T5+vWr2edX1l7uuH/w/axi6rv8JVyGMtn/JaOGUOeUHNW6wa9dazOVrYsq+02XFdy0zhGJV5z8jraarc858HXVpkDn9u6TShQv6a8SEXS5r1d3nk/EuxieuiFoWCPVbeXtmRJ09DiSFztsv7Lu3yYuaQS4tOrpVvM90rT4R+QxSZSgnk+7v3y0Z6V5Vbi95FC299OyMdgEx2eUSeEnwme6mqztViwrffutlor3RVn0BqEGlKMCh5o6qsdWmxUtBk2Vhrl3eo6BoY+Ujajyq9GjrEbTlaDFn46HKV9H/oHWJJ15gF0gtgi46FDvCAT4utoFUbCJ6gtAjJx8/0X9TWSWutkituS4q0WOuz6jUzJdJP11LJ1bVK+vuUVSN2arGXN2DVUq70XeIFXtd0tnNIM/cG2UPjaBxCTfPVWzTWBtxs8ghLhvTM5xXZ2NaZCBxXXl9ubm5OOGmqu9eisbZHWl2j8a4yW3pxt7Tk1aP/JBz84tbAsQf1EU9nx0B1cW/LzpuHjXNWl1UT0cvSswYzCCqpTdKoke9jrFY/BAdb1MX/yvqq8/r9BbdFv7KxQ/o57ueJKpkFso+UeXsUPXbFojR4y/DTxiXlB/Wi7bBFl7VK2durdxlxJSmprTPfY7/3I5a15POqTDYzb7TodLT+bafU4GmOUIXaJpv2g8rtZKHfX8q7HkYjs+yW6k4facJrCddl/zefEFmmHp9FN9SlpEeaBdl3L4Q5M/WKla3WqqHmkW3cc9E0eFSa7E2jzXR633gq/KkZ/lq62WvIss3QziIeocY2yiZ9p+7ANvxQMCsqjrDK/q3kb62y7ua1E7K9Ch8TXQ8Vb2WPz3Nl+gPbdvpBeSNQEunc7LgTWuC18qddZO06F4XcH5N9uTjH8BvsnoG7tw9d29MZzeT4Hy3rZpdYONTKvpIM5BJ6oT/4m2zhL07M7LQ+kh18IaysIp+TBnreSB3Jt/OTD23B2Wfxg8g1sjv++NC73tahosRtVLzwo55O6TFrR5rwDEoG821i7EFJTbboJ/LEXOHdB1UPb+0FYXWyR6hrDVH2vUkjX0ft7A5++eXBr21xRVENmYHKZsmGsqKrAjF8hHpfI85GjRozT/IrrCZiYvsInT6ZSBv1nNmNtzCrhZ1rMn+VbPLOP0m4RFXIPS3ZMcpF81skv8AaoiU6A6Gvv5mPU+gIjbT+MoIlSjclmcEGmp8hu/ubHBYXJZ2tTQP+4gf8fv9Ax8koP6HVuTt0XLc6O9KyJJuUA46Ir8qOnvL2wKHDffmK0zgHSs8fvHm3t+fTiKJOkhm4lrGoPbKhw+YltcKOz68P9eeHcTg1pz9YVd4cXsTJMoP3nRxp292Oygk8A18ECyK9e9CbG7xb/KnpLwZKMgNtoYNDbb3keiv7fn7Rvy8GVz18s/+MuY0It2lPGSxq9u0TXI/VxYOu0tpy41OIFT6WNd0++znbRlp3bG+yOVD7ncFfKLlaYapTI21t6M/c+51dI63OrcWYKzCs+zcekZwHW8SbmuXPYBoaisMdXYP6sXYnNDrTnBlpb4X+zt2tdo20S744hJp2Tb80HHrxkutFamr3XbZvVzIekaa59K9Nagj9E7OdGGlTQl8l/sveuf5EeeVxfIzo1EDcRGI0afpiNY1aa2tjNcakMbW+qr5pmtjE3WzTbpNe3jXri01fbHbTuLt/As9cmREYbgOOUK6DjCByG2C4DAMDLHewIgLl6qrNyoq7+vzGmecBzu88/M75vidznvP7cJ7n/K7ODrKoFTBBLUGtzxJsTmQ9KFM6tnhdeSLVsUHNE38am1dWtDxVMvyQcPTQRe0eG9SU+AVeefBYc4hXqPepxilSRHQjnQ1qCZxDw/AvdotG2k44s8xRShi1tF42qCX4ui2EQxxTdgqG2inRkodKmRxr6Ykm58boF/O1YKjBbqTWEtrJQ9lxwwWeCtfdp3KtqkK7D64lIeHwnp8kmPvWTqiDnkaNqF5mzulAdc79opF7oQfqPiGj7ZE5f39r2aNAvj1uO/LEo4pyRHfjxpjESD/Nu2Zq7YjJj461Zmv0IeaVdDVMNros2sfxvqwOeJieFom047BzX2WaABodaQ33+9bTwK3Q582Jqr/xx7XU+8CKFneyQKjFKDNuS5NKJFvEO5P7/xfwsk3LH8Xw6B0TCDXYO6FTgqRRPYPlgSzF2TmpNYoXAJv9rjikfQX/0bySIVZqgLstTu0UvBR4cHo11twKzjWHCsVCbSld3IvBzm0c3LftDTc7n1fEVSxOjoyKwxoMVOwXJWLwA3T13GK72Zneh2pvQdZMtiiohaCn5AdBUIOJ3r+wjQlluGN6pTpXbGKwBnv7fSQGaYdgZfcgSw9B0aujj7M+IVAbhG3F/iaoU62CYZlxezRuyXiGCF2PrsHZU98LgVoS5qWgLVFCRbRUANYmwWP/RgTS9lgRw591iZMktvykAg2KwDKOQwKgdgEam9kWF9g1JOJMd9BnDXYL+UDITLUws7entsSv6/TfoWEBs9Z2HALmt7A6VerdGhMMK8k7PeqBa826R8D75zyj7c0LaE5mvUP+WIMzdv9BHjXYfaiI0e7e0Z6ib62ljhqYBmT/kjppycB/a2X0pVSjpwfoPHXUHoB7f/rviKN2Cs3KU7pKj8hnZlaCR/47cdRSsTLVavS1/iGfbz4BHvkEbdLMIH/IUsNma5/orKiMEEetR30Hte+ijdqHwMSLjLY2Vydqk9SPtVnwT/42adQOABMPsNnYn/TWibuoowbq3I98Klao3VKPtLEJRd3fEQRPTLpbaTIo6y9mtLFR3ahRL6SxqTOJ7I7jhFE7itW9z+bQjVoL9TfoTaHcHafB046w2dZ2/U19HlJHDeTiWj8hjNoukDbFqHCpbR0zJ6ijlgk8jV/QdaolW7E8p+vocmwlH3KfFyg29Saw7zCjXS1aR1u8JeqoLYNH/j1Z1K6g+eir1oEahwTJUl+DNxwe8PpDGPMCu4Cnia5nLQnt+2gLnGo/F81Mv/DRupjBvFBwySlMMctOMFC8mtWuGv5bLbsJpgPk3md8sD5U/2L+DqKofYYVlTL8DdTfF3sNWb1Mp4nDGr0/CBMADbLa1A4j+9Xqm+IAX8SScPBzV4midhhMKmD2MWzkaMFg/OqaRnZv0ULgbPotUdT2IaZZGzYGaks4K8PFri3TXfUV9FuisXbwP5XBzqJGzey4NpN4JW5md9Fy8FM0nbgnsQKgq9KdrzaNc6a1aFlLFqvOEv3gp/5JEjXYQeEBQ5u6DJmFq3HSVAWjyTS3BKkGTUU9SB5v7gg6ZHffbB7ObclOs5YFdJBvZGlVnRVTKIWg9R7N62GUx9cnRHLHDgfirSDNkHWgjdrXY2/G2ZRtZoKonUdtS2rE6na/HvYDTFrWwAnbFLvEwLr2EFvLGq5nR5+uc9bPYgk+8DNHCaL2ic4R9xtWnnbTonQiytZ3T2FSIDsKfJsU84g+Qg86Gqy/WpMR7sTXRQhNfYsfdIw/WBi5a2SpUydqZSxWMS7CFTQFrS/pC95xiwaT3sbphas7W5NJvT1wNxLs3JFswb2ArmVRaOjwjTQzfkF3VLYEA3gHvXFTZ/n0/jHO3ILbulFjkboG6guU98ih9jFwUuLk8rcvGmMaS6n+ZE0Wk0NgLfaf6KfgYrX+MciMqTn9qLEokoU5o/QGGJzm13629IkBJuc16Ectl8U6wLCMK+RQA529p/DMnFZYBeaBOhZGUKcVtOpHLR3Fu3eYfl7HchqqOhpaOp+/PCoWy/yZuD8fYx5KQjlYrAMk4u4lh9p29SNOpOGrPeJrC9Zymd2+bJDKVHXdv30fuRQiJ0o42bga1o+ah8U66sBrmljZsXkPn7RX48irH7V8FusARRcWagOPzxqhGwtPdetHrY/FOkLkfbig35VTLNLSavWjtsBiHZngZz6jHixwCYZanlM3amzu6A7qyZEXUN4ORta/daPGpt4BVC0eI4babuGGOqmlt1qQVZ9gkJt8gBhq59QPOC4aarrr7YfYrAOUbZ0jhloqz7iUMaR36lU/m2WA8QWp1EOgvcKhpjNe4GEUOiujHgRN4pDubTCV6uv5xqqJSAb1hrgg2l4lHGow0h031t7DaBWgPDaJGGpnkL5EDH2spetA7T6rVVRRT+0AiR114qEWY6j1q9Mil9AW8S511LoFRM2muerYOsdsEaCd3xliqKUgdow08CtUa9nUMLs1gCyi7cRQ28+ly5ThFNHW24Gl03FE/WMpxFADTezmhEQtbU5LK65qlhWDoHTLQww14FPyiYla2q/5iScoMJ1t1gxircRQA41amgVFLS10N8GNYJjt7wepo2bh0kbBkFrKide0Jpf1cQ+6+TmIoWYXvLTg5XdY4JUxggzm7SXIf6s55Qv0RXXFHEyUldOO8NNgIou8FhA/2XqnVZ9MlQ0oBapgfuV+Yqi9IZ0d8IIwMTaf63YqnvzZ8eW2UaRfzRYOtTaJGh+Rd+HKwJRRBKYnbCOG2jYZbjeIuqnHQEFmx4o0Oh+tqC3xDjHUdnEaKiyllpd6vtpeLgNQpKDC1LNwQcXUE2l0PpqkXsZyGKN9tZQGjVGvAz2NP/ZHKqYeqS1xmhhqoGdHkzQ6Hw2pLbGbFmnmA+hz86RiC2SVXCB2ql1CacovlVhgcMElYqca6BqZJY3ORxVqS7xJ7FSDvXAzpdV5KA+kAF8khtpB7MntUrFVAgxxkBhqxy0yYc0QAkm4lsvEUIM1x4PS7DzUTz3fO0YromFpdh4K05+onSQjU4ZQjtoOr5NDLRWpq7BUfDVRD4HGiExdl2bnoVmVGY7sJofa16B+3ybtbgQP7iVyqJ0E/px2aXd8/QzM8D451OCUxi5peHyBNgrKX8ihZsoywphj4QUqC6yv0UMNFLKUS8Pjq5x6J9xVgeqCeWl4fFVSryxY1QmUedFS8TWttsIJgqh9IPpIbSMo00J9GuiqPpRXUP4CjXCVs/RIM1+2yjFT3NVAP4VoVfvkSFDuGqPeG+aZflQ/Zqc0Pbb66Od1xAy4W0el7XGVB1oS/5UkaqcUmfPNWWBmgfIxSdTeA885II2Pq1byNSxrd1Aw8mZBGh9XM2oLpJtJomb6Qla4c9Z16sO0n+sKcOr0SOtjqhDECq4QRe0o+FIokObHFBhZoBwlitoh8E81Js2PqTLwWvkzUdRgvKBYmp+rA3c7VdJggZ7lgbQ/nv6lHl945EeyqB1TZDcFjqoD2/9HsqidV2SJO0eBWLv9LbKowfE/su6Yp1dtv5kual/KLmv81A4cAIfpkma6qsj0SG4CaZHKVcKova3IJjHctAA2/zxh1OAAPceSZABHeW713u+jTBr0rCl+CQGOwHTjI6mkUTsl3R2GcXUQTYt8rmSQcZwve1+hyHZbnADoM4E+pYpPYoAhn0J95KxaYNaU0isxwBDI6lAOEEcNujum5RuUS6hA+Yo4ajCRSGnm+w1TEwoGs0cK+r0rBU/lz872RUKledRIq1XEcnWs6hx45kkue3/tVkHGVONsPmjvsFaj6p4uXqyeejzc4PfVE/D9ZSgitCB6WbAnbi76G9Tmy4g6FR1KL65seVJVF9yy6XU2F3imk+RRM2/jXnncXaysV47ixpyBunuFWw01MFlKSTGTRw1OcUduE2MrVzau9EBLeDCydb7oboIn+Jw+aTHeoB7U3h29yqbJ6hoq9/q2wGDTJY8APeRjvEFTuNbotVmUTZbFVZ0xGDK0y2YFLPqN1wRAzfQ510yigMJGjr6xoohReasU8v1pMl+EL6Iejv6lzVRWtLeg3nik1UCPzkWTEKxBL24YbdcnFOaqqB64Z6zj7Y6A/ttnAr07FBeaaZYVFHmG7viuGdepZt8tCGrnLfwSJJFQ++/XW2VrrSFQg/WfloOCoGbaC569EWvbGxRU5eb4+Ue15sGh9p0opJkuwX+zEqRtL7EoyHIMefnOAqmFj3xJFNLMlx38Yu5RBV/Wxn6Oft4cSP9lYU410zfw2ob1nvHZFR5yjNdxCmMVwkjBN+KQZjoLbYE2HTSscFL6kxoeqMFWy4I41dYEhoMq19H8HWFwrrndLtfdVbmeyu1kBptz5h6+pwOm3+4SiTTTBWiHbrTd9619r7l/yRnu76oFn1G20o5bwezBiXD5zFAg17OptEW7kb270NNBcljeq5UMDfgQcf9Lih5Peps1Gn0p1LUyXL6wmLs5x10ANz0Pxnzdx4VCLUbMXflpc/b2RkmwK8ZRtRlqn2tYbom6rBuErRrxmw12WlbOiUWa6S3o7KnehJ2NlC06/uc8vcHIfDdC/uGpaP76WXMXoaEGfTv2g4KhZvoOunEjG/0CLpp92VU/wdS/UBjsf9zkWp9L+BGS52MO/PKR10UjzfQ+3P/xDSY9dsJr7a/s3VZzVWMP9V8dxnFuBzBRTYj0W1XI4MzmHmt5YzE9p0ivqpKC3miWLtZQFtYMzlz7O2bhUIsRCN3IsdbxiuxaC95nkS1SNNan+crwH/auNTaq4wovVEDaQANt0zZpnJKKItFKpGpVoZIWUUVpIU3UNkqrpCT9k+KkYBwaKU1pSEgQagU0IU362LveXdv4idcvHvHG2MY25mEDNuAH9gIOj/A2mBgb8xBIxQ0Y2+fM3Ll37sxdfM/304vvXmY+z8w533fO5OvwGFUaHms/hOMuWKUXsL3fbc5j6o9HteYWsnaLlphq8E2dgQfJERM9SDXfC84ta53FHJdim+4EfaT5bHfYlGoaDAbd8Ft/4UWmjRoPDzcBe8JNBrc2xZVmgb25sVN8qp1X/g5H4ZeO/Z3Pk3gLDkW3rTG9zrfwuNWwvqa9O9VFqgURrn/Lm0zzTch25gTzoclZ/Jp7XrHTJ7pDbr0VYjhOuNujVPPNgIOxwXqKP9hkciq66ncTmxuq0DSv6nAlkk6LGn9Zs+5bKzQ1wbrd6qC6A0YJ59Yp/tIjSJnqeM9SDVvW8q3yImjeV6jL7zaiLUMl01rVKkYaHIcZ3mUauqxlWhzTQ+YprN1+9xGp2Kg1KED6LSV4eFFDl7VUiwHjhTuDajfWmWO3I4R61VpBKxIqveBlpvnGJxiSNaHVAtaKXH98oOvKTReA8ht3g1fhKIwY52mqYZKBNev3GgENKH6uRqgpOBlr0NBnej0yCr/1NtN8Ez8HxyTdQqEeUnoGl7kav8cQRWKC6aM8TjXfU4ZUZFABfxseiE97jWodBvnUEN/aNKnIAGY6mkCL4RSvXcKxFjm/zvMRXsFK2ETJATtXG7Ug+7HRY0xb9yni23uamObzzUS4JnrPNvT+pfUWALHLY1RD6venzCSe3cCbiP0hW6zNJ9J58yM40he9xbRWbDwnEc8YeVzBLRReZxPYA/PklZ5iWgayfXo8e3sb40bYLPPIyMfyv/XuXsHhNrC+mNMnEss+w8tYWa5ACXghas2pc613WzzgDKJIBZ4gjt3CbIRrAmvRRbR/M3B/H/EQ0yKYee8lYhg3Mgib3hnWCtNHfazKc6XkMk6Aed8T/kIMu41ZdqrXYJFxal/X2dXutdNyHaj3/Xni10ApdKphWN33iqDZbVNfAjMQv2q7cu3zHMK0aXcRvwbiNbgZnjUZV6Tz5q4bP24DP93jFaYF6zC7+3eIXYPxOhijAsvyZ9X/T3Dgxx97hWpHMAfVLOLW0OQa2EJNbF274ageRGVRz6jta1No+xST3QPW7p3C5M++n3tWbT+djnV6pu0TwRJLKYq9KYwuGOBuvGJXDujlmecPH950vSJX28U/xw1SpAQxctAWWha0Kn+GtuO+Bv1q+5mzVbcrVrIrDxbp+NJ2hGgh2j5x3D/A/H3F5CwfgfLnjs8+cVlt/yR3zRYgsmWqJ1sudlBLfZNYhWLU73tuntdSY2bbzmVmZ4J6LNmmCSUVZXhDmI0NiovZa1Yj3zplIZGKhfnV1/an55W17DUd2ivwPsSbO65bavu6XZmnOIWCF/eq/PIitMHc7DFEKRZGrxAcWkT+bL/5kStqe7Rw00azK6YUtolEc7fGWPJDcrD4XbGxhSVB4VuHO/1q+6AogA2FbXlj6Pf9hvjEwyKx/SKb7TnSq7ZjUQALoYOKXgK/unkGsYmPZJGxReTPW61NdartzCiA1X1rq5LX6EJf4lXKc/AxRuS4hlw82N+ur1OT2r6uObbBsIqwindpxYJPI+F+IpMZ1xb/0zyHBEf2cv/A61DbBaIAxrV5zuc8GtENPPBnopI55pqO7g6Yt+q/s0m92r6n/YL9u/McD4ejeB998nOIZdfM/o5TOD2MtypV27P2dWwxZBBuczgswfvoz6aDmphqsIw/vCfhebux/0OFte0lBZVhQxZnHWVapAz9kqkTiEVimPMBd3g38q4SVaS2m2gB4tji5GktWI9+RzY5h4SxnJfJPcjtQKpCbbcdBWBwMOERPIbn76i/lZXQgHOWh703iwf8a8fVdkEtQBg9zjGN0TGTPGqWkMieeji2DQM+dlRtl4oCVh/fVofsuU2KmRZ6g9hjDUmsEd4EjyYD3WDOqe1WtYDBC22sua+J906YiggH1a5p08YReSyGoasYDvowv+WCM2q7LS2g35AHycpNAAAMCUlEQVRY1lDS/7qwsUGJynPalBEUfFrG6PdEfc2DLqx1QG2P1h5fbT/C7Ng66D6ZmhQlre1Za1rCk8Qc63jnfWyI4XXGg7IZ0mq7TBQQqjoLLzQFh71mdWuaEX6NeGMHmBqKXKdaOPBzKbVdMgqo7USe2RbiLsL2kFHP4PrLxBp7WPoPMMjQbpofGfh5te1O8k5EAULSRqO8PFbGYNpTxBnHuLY9ZHLJgT213bEoAKAcHNUC0ldGRln3hy8kxkikcodw7SMofw4uD7GhtjsaBQyxkpVCZ4C0JluSx3iX14kvMlg5aFHqTTNMdCerte2ORwG33/XoMayzgVEq64TMZ7zOG1QfJYdFJib6IfGcFbXdSl0AjPUOF3DK7drWV2YzflGy1GF3Dotp5BtykmtVpttRjFHzrisK6EtE7Mr8lG0CSZUrdC9guTJnEtPkcdspudP82pbzIt2bpRxBqRdaqrkrZT73149JWZliBjFNC9fq+fKnmNou5QhK6ykskvJOhmQKWaIXiGmKkciUP8EaYaK2y9QFBE5l7grytk2RlVLGQlRTzOIvMc3h8xrsvxloHTodHLVdhRZwS1S/3JMmFkxI3IJbnkNrmqacByJ/7gfzwVLbpeoC0tfkRjgVVAWHhVfKE/ZVzxZmUoZiT6dzueVwkA+BczOmtqvTAvyR3NI8Cw+zbz7vPMx86BJimpMYc4NrcLDzQcYBdpJfq04L4CTPGKuj7Zu9m9lh7euUuXUaz8FD9yUwJVBtt53U4GsBfTKD1UcX2xXag+3MHTpAuqfz+AqUP+Hles0O1ZrwtYBeWzJDsd1mfm3d7L8H8nI4j4kLwDgfh7Oy1QmecbUAf2NBna0Aoztqk2m57DRgmFqoKcCPTeVPVG13NgoIrr3WZG9HTqu1601bw/7ChKeJFwrwmFCVW4tc5Tk3CigqrLcrM4TOd9qNB9LZT51K/btV4Ek40tgdVDFDURSwp73btsxQ3GL3lPZJjONwepVqo5TgQTDSOdgCVK9CC/BnHSm2TeG8UvtdK7t4ObslE4kVKjD+52Co12CTU+d4FNA34+ds0ixl/xEJIYq7pIUoyaEI34QJJdTJU+VoFHCzSMuery3tfKGUNa2cc0ozEij0VCUWTIa5A3R+8pyLAvorZ3Js8Kzp5Idy/RIae3iPp4BAGZ4RkD9xtd1mFDAAxy3nSw5XbJft0NfOTd3NHkmUUIUfwRUJ74gXciIKGIS91gLP/I59n0jXee5L5/6VLCTVUxkmTQHjzejzme1AFDAY6y14Jw9c2ulAk4Tt3L3TGPsKEUIdoPyZ2oZPU5N8FGAzU5ddub7Nib4v0Rg3CgnNpmyaQoxbIOybLpWOAobimLx30ooM1cIPQkKzaPNUCUT+7GJMVXVINgoYiuumybOL26od6gMZKTBRvkZQoyG1EJM/2YuQlSjAoldkdc/BqEM88wcL001YPXM8kUEpHrFi0e+tkosC4JbG3tE2xJqd6wy/7rKZKT2bvGmqAeXP1Tz/Rd3AKKBCvhvoScbMl5b4nUNkvanKOo/uJ1MNRP7kd1gpPCARBSDLGoMEl5wjWlF7vmmA+zzFA8qByJ9mGnbjvsJ9zl2HuAc/QlU59fy2THONg5Y0HYsazHSU+fWirRLN0TnTFP5Mh7maT0uaS+lbY6tfN3aWIiubA2e13loRK8psWtJ04L4vgJE/t86vH0GYXyuX3pljIt0XxlLg6Vb4abT43UAwn994xvLzcitFvAEpb5GLQ9OiBoX21E5XqAavVpahfGtMrCJmHl236OKidt4dpsEL+yrsPqmkRdDBSXunPkyAJzVjrTtMqwHb3WV79tptp0QtljPoYjJ9eABOwAF3mBbZ70RY0NpyRbRiOfQSxZ0aMfFXMH3b5QrTtpdJJzsymmMWSvzmUeG6VjwTHye1xvYrSLCYbuURm0/ssNLo494naPL14pewH8pm/Ty7iu95HRaMSBctXcMx/ds09ZoxEgrtsTjhmTHkwj6umL7DUiHM1MdJhdIO6L4Nt2nkWZTDM8NIE7WNZB2wQrTPP07tRuMiqdahj2hZpfzDlbCHyEobkXu/S7PuBu561rx3vDLsNfHE5oi2td0p3I8t8I0f0qS7g++Dybiqb00zc19fE33SJtFWMl/+A025W4CeyAptVCs168nRK/oksS5GX/8iJWxdBOiekBLVxbQ2k+4JYeGdvFeEaA+/ONpHYWc8HdWuaFvUKky4USD8pI/NG4g89FOabHdxn4tGtR6HDmp+f9DEzv3wT+6mqXYbXwXTsksb1bq59LBEeZ6j+9wPaEGLBwBXRzhDG9XKeJaLBkuPamBunI/+bTTNclwACKD79eVvOT1hmiz65bLQe1tS7/nT92iK4wWPCfVZVoNDTLtii+WOQ+Ugh5tzz4t0QIsnLBBv1OG8EZJVbZ5uo7fViUG2jq899FfiWXxhHFgMdmuU2mtZy9p6Gw/rumWJTPnjr58bRVMbb5gEZnmPRqr5O1jdh2wV4pV3XD1V9ejfv0TTekek1QIRnVQLxhgyuS3D+X9XJS6n5SxeAcT2bM322+bukHRSrQ8fJK9cTKpTPAPUFWzRXlMQLaySK254f9n8pXN8PtI34xpjANXyXChgyai0WRz4n/eSFy19u+//QTSLewBdqtiNorwsUIeew/+Fd1csS1o09x0iGFHNKmDXZaymIPjvFf9alZQ4d/nbN9dkmr87+ax2zp3+CUNfY0pScvKyZcnJSUlJ8+cnJiauXLp88Zxbuz5RbFhEoGmuUA2o5QsGsqovgTGK+HWHA9ygnRJ0gWlRoFBNpqkZ9ilcY69+pnXCbMfPaGqGG0a63u0qeugY0nr7AZqaYQdQWnBQI82KcmOncGXqEZqZYYfJEo5+ydVszQZmnfCz1Odg+AHU5tVpkdkP8ZvtPUgTM/wALizYqGNFKzNpdvAkTczwA+xDVPO/9u5mtYkoCuA4dFMZKLQQAoHQZBEGus0uJNskq85k2e7mBfI+naZWLNFabMBWUVvU4AfW2oq2YqkgGrELVyIorQsRaamg3juZ0s69hXv/v0eYczhzv4/6TIt717FEXAxUPod3FHpx94OLxMVA+br2wdq9uExjpGammnAR9Mo5FzWXziiWzAtUr6xdj3n0wGFOYCjxfe+e5lMc/53pCIiJoYaEwVpL7fvev/pnWoWQGEtYxD1js7o4W33/nmkCYqzBIJlbmCfXp4O6yzKHyUbEDo0bSlNtIbKkZfOEw7I/6J7SVFuLmoI6BYJhNkmPDLXP4UY+hpYiGGaTdP5pqx2t3Y1ItQbBMJzYj2VO8Y7Bj4hG1yMEw2xilwzF6x1TU/vPvq+yz27heodwFDdcfa/heKR4pyAgGIaTdNTW0adxqcW8wDYFR2zG9FhDrr0g1ZgY6Llj0OVOnnUykksl6m/p7Qq9QHOEwviJgS9pLrGtONOWxRbYHOswX1my8vBN7fMdr9a5aWylWqhzcW1mo/11mpvGlpY1SeQv7qhZvr228ES+WeATB0snoeH8w8TzbLuzPht5XC0gDFasrdVlHXi+JHqB5eXbvs3a68OEwQpZaQe7xHJt92Z3PuZWHgu4lhhyleXa8mb783Rsz2tORlpjQpoNrx+deXT2/Gp4Eh4hsIYnzYDFTdXljEvt/EKPj39/UFzOuNRu4eKaI3/ubGU/6cmmiO1PZqFHPVqW1JWz49knfQnscqEUkQmtlTuqyhmnh+w04EYlw9ybT0rK2dFDHfw9LVRoRibE4sFW8uXsUJUDHVYqOtE50eruyEvb2inL2dF2VI7zHJaqjPVLjNne/Y1/5qMzt989uByemptjj4Bciy5uN7p7Pz92Ok8PVrq3Lp0+zcKmx6/Tbmkn1MBNFflz2m5Qea45tVyG74zDulZXmGcNL812J/4Yb6hJs7Fqdpx9AfxtpKqgnI1SziAa8hmdQdeAbZJyBj0KJUZn0LTqEUxSzqCpsI2OMTqDHhl/mnIGPYo1yhl0VbZsk3IGPQaCKuUMumYIgV/vt6aRmqCcISn5iazvirOEZi2VHubrIPF/abmSS3l+qVoq+Z6XrZTJMgAAAAAAAAAAAAAAAAAAAAAAAAAAAAAAAAAAAAAAAAAAACTuN7XXK7mtgbEUAAAAAElFTkSuQmCC;" parent="1" vertex="1">
          <mxGeometry x="370" y="420" width="100" height="100" as="geometry" />
        </mxCell>
        <mxCell id="EkTLwEob2Fp1knODdt_H-24" value="" style="shape=image;imageAspect=0;aspect=fixed;verticalLabelPosition=bottom;verticalAlign=top;image=data:image/png,iVBORw0KGgoAAAANSUhEUgAAAmoAAAJqCAMAAACsDJxNAAAC2VBMVEVHcEwAAAAAAAAAAAAAAAAAAAAAAAAAAAAAAAAAAAAAAAAAAAAAAAAAAAAAAAAAAAAAAAAAAAAAAAAAAAAAAAAAAAAAAAAAAAAAAAAAAAAAAAAAAAAAAAAAAAAAAAAAAAAAAAAAAAAAAAAAAAAAAAAAAAAAAAAAAAAAAAAAAAAAAAAAAAAAAAAAAAAAAAAAAAAAAAAAAAAAAAAAAAAAAAAAAAAAAAAAAAAAAAAAAAAAAAAAAAAAAAAAAAAAAAAAAAAAAAAAAAAAAAAAAAAAAAAAAAAAAAAAAAAAAAAAAAAAAAAAAAAAAAAAAAAAAAAAAAAAAAAAAAAAAAAAAAAAAAAAAAAAAAAAAAAAAAAAAAAAAAAAAAAAAAD86isAAAABAQADAwEFBQH76Sv15Cp+dRUGBgH66Cv55yry4SmGfRdUTg4oJQcREAMMCwI6NgpKRQ0qJwcuKwgJCAI0MQnTxCTRwiTbzCVcVBAPDgK5rCDq2ijs2yj25Cr35SoYFgQVEwTx4CkwLQghHgbQwSN2bRTo2CheVxCEexc4NAqXjBplXhFfWBBxaRPMvSM2MgnezyZEPwzXyCWOhBjt3Cjg0Cauoh6BeBZNSA2nmhxiWxGonB345ip6cBWekxvUxSTJuiJCPQuIfxfBsyHKuyKRhxlHQgyUiRm+sCAlIgZ1bBQ+OgsyLwkSEQPz4imflBvHuSIaGATYySUdGwVIQwylmRwLCgLayyVrYxJZUw9PSQ2wox6/sSG4qx88OAqMghhvZxOxpB7czSbl1Sebjxrv3inCtCG7rSBRSw4jIAbVxiSAdxbn1ycfHAWkmBydkRurnx2glRu9ryDOvyNqYRJhWhGqnh1TTQ7k1CeDehbFtyKhlhuJgBdXUQ8sKQhtZRNkXRHh0SZyahMbGQWKgBi0px8XFQRWUA97chW2qR/EtiEmIwaWixlnXxGsoB2ZjhrDtSHi0iePhRh0axTGGkHUAAAAXXRSTlMA+Pze/gn2AQLuqduAzRQX8zU8Bgu6+j/mBL4RlcV+pg3Qg4Yc4lwZ1byQTZjwcDLYHnez66LJQp456GaLIcGZe2JXk1nxT5yIr0lUK6EvJm6rRV5R7ClrI2hft3Rg+xU2AAAgAElEQVR42uzd+1tVVRrAcQW8oGBoKnlrAG95yTSGbCQvXdGs7D7lzNqAAnZQATFCTVJTVDT0CTOV6JE0LJIorKigy5iXLlM2D83oaHkrm0vTkz79BTONNU2y1t5r73PY7HPO9/MjP7D3Wet99t7rXe9aq0MHAAAAAAAAAAAAAAAAAAAAAAAAAAAAAAAAAAAAAAAAAAAAAAAAAAAAAAAAAAAAAAAAAAAAAAAAAAAAAAAAAAAAAAAAAAAAAAAAAAAAAAAAAAAAAAAAAAAAAAAAAAAAvyTc1/PmYWOSBt7RZ1Bs7NjIyOjoOMOIi46OjBwbGzupT7eBSWOG3dxzYgItBWf6TYyfGXPrpKF9DU19h066NWZm/MR+tB00DRh/e1r/yAjDoYjI/mm3jx9AO8LsSXbL9JjkyCgjEKIHjUzt1Yk2RSsThw1M7GsEWN/EgcMm0rb4+WGWmhJptJkJyVf2uphWJsx6JU3qbLS5zv1jenWltcPXRdNTog3XxCWnDqHNw/FxFj84McpwWVTi4HiSIWGl0/RuNxrt5PJudzMwDRMXj0pptzj78cst+S6iLeR17TX5csMDLk8Zxag0hHWJvzra8IzotF50SWgakJpoeMzYKy+iX0LuxXlnSmfDg/p2G0W+LaQSaFd2Nzxr6NRx9FCI+M0dEYanRXTrSS+FwJvz7kH+RkL6srl5W9afXlNWVlm5efHiozvLy3ceXby4qbLyuzLf6fVb8uYuS/f3GoNu4j0a3Dr91o8357KFubW7zjxYOktYmlVadGbX97kLlzm/Wvf7ybUF8Sda0j2Oej3zeLGvqWi5cGB5UZPvjeOZji776xjGo8Fp3OiO9rv7y5raYy0lwk9LW47V1rzsYBphIBPywafHVLvJjYyCdfV7RQAdaVqVl203+TF5OH0X0oE2vzqraZNoAw/sqMits3UrHSfzGg0eAwbH2fkye2FNeY5oQznla97OsFPYlsQimOCQEGOjcGPPyU/3Cxds+su2L21Mxl+aQD96P4+WOkE7X/b2M0XCRSt9edr5twnXkmfzuHjtKfWCrEbhulMV2tEWG09vetiQlCjdOGsQ7WSjdrQls67Psx9pg/WGnXN9D4l21bhmrl6aLak3vepBXWZeotN9hasPCA9oLi7UudtLhnWhZ73mvhFaL05fqfCITWUrdO540gz61lP6jdHIpM0vXiw8Zee6+Rpv0RgWIXjIbbHWXfZI1hLhOfsrPra+80Sq2byi01Tr0scF9SXCk3KaNliXTo4ko+uNVNpYy1xtdZPwsB35ltmPyDvp53bXe7JVKi17W5HwuKL1VhVuUaMpnGxnPa0eaRnFDSIIbFxnNSE/9gp6uz1zaWMsdt9Lz31cBIm9VsEWEcO0aLsZ0t8i0PJbRBB5sNgi2PpTo9tOrjPfFSH9/ZUiyLRsMR8gRE+n19tBwq3mj4CFZ0UQ2rHb/FelkfZw3YzLzBO2ZXNEUJpV/4j56OAW+t5do0y3rso+sV8EreVZpjPxcbxE3dR1qmkyLb9RBLWNxaYptpHsceqaHqYjz4LnRNA7aFrQ1qcHMeCOK8wOGchcNVuEgBKf2QrSoUzAu+Ius1rbtUUiRBSZTcN3TCUO2v4z7XqzElvfHBEycsrMqtlGMnXQxnonmzT/K3tFSDn3psmPncb8e5sablIDOe+YCDn1i9S/9yo2XGhDtww1+UprFCFo49smRWz3EhFtZbx60jMja44ISTkV6qFo9Hhiom3MVFcMPXpWhKyXnldvkXUXUdEWLlW/Sk4uFyFs/3r1zMEU4iLguoxUtnfdZhHiKucpf/w1rEkOdKSp02kLGkXIaziu/PmjSbAFNnF7tbKp33hAhIHZ6pfor5h9D6CL71COPH0iTJQpF1Uls/w9cJE2TXm0wEERNnYoayZ/x8RBoCaj+qjaOO+cCCPn1ir3kEkgSgIhQXlyz8kSEVaW/ll5bhCxFgCdVHWQ6Vki7FSoVlT15x3qt36qUo7sT0QYqlStO+jD2MDfLEc3Vd62WYSlf6pOTJtGzsO/zG2aatLzQxGmGr5RNEkKuVx/Im20olk3vCfCVqmqriiNOSrnVPOeW2aLMPZivmo+lIhxSlXL8bcSEdaWHlY0zBRixpkbFOuKi58SYW6OIsEWRf2aI/GKSshvc0TYm3VCUStJXa4D9yqqu2sJtB/8XXHmHrvH2HaRYsXKKqLsPJ9ibQvrqOxOsStW4X1OjFnE2lVMUdmbJFCUDT1JhP0sS1G+RirXjut5e2o4rdhjgfjRd7+8DT8jun45Dv1M3k7XEkG6enaUtuBqshwXxto2+Qlo7ImlqYd8/7T3nyK2WuVyv5Dvv8Zef3pDAnl9d81sIqu1Evl86AiGBjqukddyPEBcSefe5QsOBhNH1m6Sznw++h5Rpagpkm7pEcU+4JZm3CituX2cmFJpkNblxrEjloUE6Ul4hTuIKLVm6bZYlyUQTaakp/mkHyOezGyVrqNKI5rMTJd+464hmsx9JG2264gntXHSwqGTxJIV6eYx93CmozqjJl1dvHYpoWSZXsuT7q9Adk1livQMvFNEkrUj0r1jfk9MyV0hq/DObCaOdJyVDUM7ct67VG9pnuNZokjPO9KMB3WSMpOlq6MC0Amnmpu2lr3z5Crfs/sqz7y0xBuRMXtJY2PLzu3ljaWBmtuVzrwPJK5aGy+bkDru38xnw9On3yy4cEOVuoVfVG3+Y7vF2BOb13y2ZcX/Z/gzX84rzqo/4O9puS+ukE1QsYSqlU7dZWf5NDhu+FnlFYfNjqaeu+2Q6ydSLd9cVbNMfcpHwbayFn8O+miQ7QPenVeoVj1HpdM4O/rux4a1vLfcDLSH333N+pbqirc+7PgKn1LjoeG2iMDlblse04mz8yXk7h0X1LJH854yqiucvt5lmdwIRqG/0E+2Fu8DJ18vOU3Vhg2r3Yq0x+fZuKvsw2ccFbcvl22IlcjGa1bJ24yjDtp61zeGPYfcibScFTbva0+Wkwq97Zkkcs3NkJ2R/Vf738WPzTPsesSdaa9PbN+YUXjiCfvXka0N7XwfEfaTLiNk3+w2P6Nm/SM/3XDgU1dCrdrJrWWftD0Cz3lBticze/z9ZKYsz2EzFXFwt+HM625E2lOFzm4u812749GHZOci30CMnZdwiaR17FVDFuUaTuW7EWrnHN9eXYXNp/vTssV6JNfOGyxpnFdsJeCL0x13pVHj7VAzjBU2j9WtkfyPGKLsBxMlY4LXHrLxkbZvkR8daax3pZ6s0I87TK+1NU26d75kZDCOOPuPaf7Vc2ysMfxS5sqw4AW/7nHBSjvX+kp2kiNx1qFDvGx9sf73iX+PNMModKfS45B/d5n9uY2Ubo5sFXI8kdZVMk+QXaRdilNs+KnKpYrsuX7eZ76NqZOVkkRuLMXfqZJm1T6n7Ind/kbaQrd2Aml5zc87LbCRY6tiJyxJomOCpFF1E/g7vtbNGCxYW52b+2b1wguL1zaUujbdfkBSPrRono2hc91i/bpLyTN0QkKYh1qMpE2f0/3+ydb4yFlb++ovCm9PNe/7tuDHDl6U5eZirCOrM378PNzw7VevHti46b9/3X/kw7f+VXv4A52Sj136CW3Oz7jQAMnCz1zN5txl+UR4vqpZ/n5c8oeqL3Jf/2STy6WR7x06vW7V0yul+8SVnsnKy7D6Qc9oX2qLZJ/5AWRvLxgSas5IfWURaV9WlYsgU/qnXIsvuo90/1Wj5ImfFM6R1iPO8ZDQZ5Firy8RwWh/vfnEvPYBId9LNicK570kJVXeX+sN6p80/ah5/4AIXivXZ5r8ttO6MStZWDE1fCNtuGRKql6rIbeavD0XndgrgtveEybzWO9o/pPvJI+18D2pRXI6wQqtrHizeuz58b5Q2DP3lLqAIF1zbU/Obk40+J8hrfeMT9fas69RucKtzhcqmzNvX6vM3xzU+w9nW0dr53Ddm0hyWva/2Tv375rONI4f97gMLautMEpbxYxSbbVTZujMtJhlplaZrjFWe/aJXEQQ5FREblJxiSKXyhCJaJO6NIQVacRljHtQGrdQFepuihVm0b9gqqqR/d0n2eec932PPu/z+X0n+32e79l7v8/7XA7a2qgVefrB70p0kmFcjafd6Hqbc+tzuNj9J9rhl5qryo4JPaVBpp5wkmK6pyHtU+3V/M/Gx1ojPb/WnrWYlG3Hgh95eqRtcBIjcqmHoG6uvesPco7kjzTrj0GKaTbsVxptaf3yPCdBbngoATtu6+pYfKz11zH1e7Rv9b/JGdZlkyudJCm1Tj4qn2braovmRGM0zFPDdjAhdoYT5FvPapnrJEqi9QfbLFsDtz7GF3A//fLW3vXtC2SzZURtcoWTLOOz/Bj3PA8vHKqd1LpgzaOd0pUcK7OvI6w0pzNpm2Wi+mZb5w74yxysm9IG+PZQi7d8pm1wkiapzPC5fNHisabbsNCRGKyw8aUbeV7LSWfjLbdCy3yMrbXSLHz7pE9V5jV+xM5/yXyTarHwjbYe5li62LinVlKzaHJlJ9RvsfN3HXBqwKEZvgbXLD45XtZJaS0w0lFsZ+9uYe85Ti3IM3zNjMfGbk10akw0Cu22yYbVLHq9FusyFeikRedoWxcexwt16vrdCisBkm1YDUvE3Yc0UZozDJ9OM21dmFypc1eFto18yy297Xtx8i+f2AjfnmrOQrDak/oUGbwPi4+2FYQthWfhh/pIDY/kvrV3XTbmJ/TVRmq9YO0L7FktxpfQEplXqHn/fcTmhbl4EKrLxsCi99Cn9oxm+lhbF6qT1Jwn6oZjU+3mtlejvQdoIrXXsX+YTaONq1MkWR7r1ItbdQKK12xfh2csb+ihtA7YPMF2M4qvHrKae7dmSnOGPRT6d3nR7fAuGLxlBy2k1tufdnqJW39uyFHt1I6k7x8koKUs8eKyRCwrHa6F1F71b/pOSW6ly5iUtSLZqSOluyaGGOWTd3qXNrUVTP66Fu/PPrBub9sehGU7NSbJ+5aqn+v5Bh2KByyhTkYumKfQWwOpdYVVR7EUZIPddF6lr7Rm2OeqlKUg/RMPW8XQr9L7K1Y7sRLkM0vDchZM6rjKQpBPlH7pHcGw/3TtYSHIZzrUGLSkPvwYzz/nsw5U8IF256DYZ/kuy0AFV7XrwvwMvD8vsQxUkAlv0F/RVlrPpuYF72AVqAG6UDal3WvtTz72nmD8Jg1M30OzUEcsi0AN6XqFO4IgVe0Ka0ARoRuhrR/l/lft4Zd1kTWgioVaNYrB9rfHWAKqWAbGf5qw1AZDo8hsloAqEqCF5BOET6Wgffw6VkAAwx2P0T2bepxT1QLJYTD/i2Sl1hfWms4CUEcJmP8dslKDVpGTxrEA1BE5Q58Gkh196RTJCAN6hXekqrRB8ABPY/cH9mPtJaJS6wEr3c7uV8kBcMBbRKUGQxnHjmf3q+TDEF2GNj7DBSwBpliTnLUO0EB+ETtfLRegfyTNIvcR8KXwNTtfLXgM+jdNdgV32PlquaTJvuAPnKsWcGaaffAcSam959tALkZmEPcVPc4K5rDrVXPZ7IPnKSqtLXwnnGXXq2YFOKEzQan9DlY5m12vGqxlaa9DBlFEErteNWFjzV4YTVBqw8yLPK/EuOOm3zgatSiurPh86g9UVs4qOH1xbVReVVgAHR6aGX+08PK8soyY1B9vKqbgYO73acvSFcyWmWr2wgsEpdbJvMg42WbN/Dr/4PkIwxpX5eoLNSuXq1bZnSXXJ8S4Pd5T1sk11cky//+3OtQXNDEvslCiRZM/W5oz02gY947r25MVqSyyOm3bFTv3NHnOAWnP3DPm/9aantKCG5sXKW3CxaHFU6IN+0TnHJ0rXWela7ZN8uKe3GUfyZlIvwROQenVHQ9S1EJhZf5Ew2tCsv5XIVFnVeHnfbindWsSxN8KbkG7axDrkODc0vBUw0fccQfk9LTPPDPR53v67obo4otsDaId0IMoRfj32aYdLsMfJtYIT9WMPFbg3z19eVfwL3IS/X5EbSTnRX61dKPhN+vzhX61JRRW+n9PMy4LTYCZRb+bwtvmJU4Q+uY85TaEED1HmNgyb5WLuSf3rm/EWeog/WlT0K5jrcCnx8UQQxjR4UJOMSouRIi7J/faDdIO3DuRk9rzPs8AbZDYK4ZQigXEGUq/FHtPUzMFGWuV+S83oaa0FlBYcE2U0vakGIKJ8Xt7sPcL0fdUlCjGWrshsEZNat3AdtNESa3AEM4Ff+9pm/h7mifoFQB/uBsxqf0TVigqPhkv3qvGWD83fSUS7sl1SMxOHf7wIGJSg35XIaKCk3ES3Orv3KstMu7puphIn4t6m9Lh0iK4qTLcuk1w8EoEgtoerqc+xv3vEJoXJbUIGW79wL97SpFxT0Vi7FVE/bgAcnAni5Jaw7HblPkTtoSvWZZ3LT4+/ti+c/m3ylIbisP5eZTRcP7S+ozTJ8NXLcvb/cM93d53Nf/klKKG7knQj3M+9X5+0Ns7R5TU6jvMjsjYcrTaav8RFnvscFk9WT1+HmVk1LflKL61b7/VkUTSJ0vOTKnneZglxl5TzH+3DTGpQReiXFFSW+Apwp51rqT+rMfQqsICD69fP+PLaz1JvyCtuoGsx9idqz08p8+IsddC6t2IRko7l7IMLFw5GW8vkTXxeM5YvLzcz0jMJ1bpHCkLrtkLDVdsOm2htrGCzgsuU+9S+oS83t6n4Ttoy01vUs/2XoXajqX+3lMudP1dsD3Sm1PdVTHmv3BZkLnSqFcXwGl7jbjD9rrHjeuOeX1cHho/pc5jqMDv6paKumm38494Xyyw/WCdfUKGqHKDNWZPDCYmtdfMC1whLrHjUm0Yy51b5eN5zXe1YssRkCE5t3ajFxFX4uOR/bxasRUIG1uzz+yJ14hJDTpGHhGYrZYUdX/jFu1PFmFs3P2PtqLjQhK/ly++n2/i3uLHN1Zp7v1tS2WNuMTvs9Q7R/aS28Zv+eeronZe8zOpK+HYuaiadGEVBpH7V0Vd3e1nGXHFkqtRa6pFVhjkmT3Ri5jUWisrzWPqZwn1SlDIjLzBTg8M16j3vRpoXuAJdnpggOEFA4lJrY95gTfZ6YFhv9kTLYlJDSaBrmSnB4ZPzZ5oTkxqjbmP3yPCbLMnGrPUGJYav0D5BcrbAoa3Bf052MHBDg7hcgiXFNCe9N/s9MBA/mCqH0/Ne0Qgf9wuNYmI8QLySUSQGnmUnR4YyKdGdpGX8M14BfmE79+YF5jGTg8M5MtYWskqAGK8ZJHZE12JSQ1Kjhey0wPDPLMn3iQmNXmNFBjvIN9IAdrDzGenB4YM6u1hekhresV4B/SDfouY1KCV33p2emCA/kujiEkNGpS6xrHXA8Fy6FzzIjGp4eC8uez2QLAXHPESMal1UzSjkWkA+s3kHfJGZDDeACMyGlFTmszBP4wX0B/8I3WcGWOfRfTHmckd0sjYRYMhjW0EjwZgfEOD0bPyB2ozPkVw6Q3Ufgo22RXsd/Vkgxvak5PaIA6sPQqkgxu6k5NacGPuG/kIcBsmzwaRkxpWgkax49WzlHoV6D06mRe5lR2vngnUKwvuMcy8yPPsePXA4JkXCErtHRialMSeV00YTIIcQ1BqGO2oYtcHfgPanqDUOsMqz7LrVXPU7IOmnQlKzdGRD9wDziLqHa/u8555mavZ9arJMvvgFZJS+4t5mRvZ9ar5r9kHz5KUGtTnGXfY92r5F7jgzySlNgLWmcfOV8smcME/SEotGMoLdrHz1bIFCguCSUoNO0dmsPPVMot6x8gH/BrOC8az91VSEUK9C5HnfQEPL1DKfzTZFVhlRy5l96skXIO8yJ+AWtAydr9KCvQ4K7gHdCmdxD1iFBIZTb03aS3Qz89IZwGoowTMP5qs1KDzFff5Duyn2giyUgt+zLzWdSwAdUBr0iFBZKWG9QUh2awAVSSE6FBX8ADopsBTzdSBB6BPE5Zae1htLktAFTCwwHicsNSCWppXeyWUNaCG0Jlm2/cn/KlmEVnjdgqqwAqWrpSVhv2IjEIWgRrOGPR7ED1Mz6bm9U5mEQQo1NG0HWmpYc6aK5NVoIJMF/WRs2aeg8f4TpaBCqIM6mPMzGCNO6fiKqEYDD+AuNSC+8AbdA/rQD6b4f3ZMoi41CzCHbwHVUCaZqGOe7wLay5mIcgnBszem7zUmg2BRZeyEmRzCIw+pBl5qTm6ctKaeg6D0d+mrzRHb1j1RD4HlUxoERh9uAZS6wB7UOMzFoNcDoDJW3bQQGo4bcqYx2KQy1Yw+TAdlIZj3A13AqtBJglug/rAdg9RXEhaM1axHGSyGAzeP1gLqWFbee4rLxfoIG+8oYfSLNK+jRLWgzxuGtqdf/5MLy4xUMkpMHcvXZTmeB/WHs1FetLIhv4JRl9tpNa2ESz+HEtCFpip1qitNlKzSO+4wlOAJJH8hYZJHbWMMng0iypWoK2f0khqLVpjvIMPQuWA6UOtW2gkNccf8ad2gFUhgxto6Zd1UpqjHTSW5w6ScoBRP0bjnlpJzTESLODiOncJVEFNgdFKL6U5BuBz/RQLQzxxhlZNYSzpAiYYu5mVIZpS6KlmdNJNaY6h+HNbyNJQ8FDrrZ3UgvqBEUIOsTbE8jE+1PoFaSc1xxj8wW1lcYhlAtr49/opzdGsP25CZ7M6RBKL28+BzTSUmkVjXGMCy0Mk2wyt2t/WE8Ztjo+1dNaHONLxoda8rZZSw6GNhpHDAhHHFLTvm3oqzdETH2vGdlaIKLD402jeXVOpOX6LxpjFA84EMQ47qv2fvXt/iuo64AAOsqwuL4G4iIKACgQBFRFpfBvfpqmmVZO0zh7WZREBeSpRjIJkAHnICqhIJDGO6MS2SCZpEhmtRiwB66tKnURsdEYTtTE6Y/+DatNadc+59+6y9+zdvd/PD/zGfZzznbv3PO45ZIZak0Z7WyN/QUgc4yfrsg0cqtqoecywLo4yfGXgEN2l1mU7Vr1J8wgItC6PCr5VcrS4vlLmX7K26zUPuS8uvcO6ZBeEqThqlFWYSUYjv/po/TDvSYfAEbN8KzlsO/fz48Wyh2vSPs0gqltnWViY9aIKpJffEGH5059tuYJQfPbpfd096tyODp2qH2oeHhHEeVO/i8ueGeqXpznS1/7MfR1o5ZY0yjRvMkfdSfOImmZdJjnpXKpj29nnBiouy3CK/WXP3dg9bi+g1kv3kdAolUeNsusUIWYu9fHC/tLGS45/pr3QCix6xClqFZRCXa72pHkM8bcuFSOPodCtd14cgL3m4DOcWOekVX/7VluXqf8Q1UfNY6rGulwsmfLXR7/1ab9b69A+VOtGYAOXpGVSxgk0wUgabVUFQprkr5BLlNMW9Dns8Ls6Kcd/j0vU/kE5cyRy9lg0ZXiqSP5PWg5RKoRkbN/qmKOXXKAd/jMeSevKpYyzT0LOnhhDqZTDstfIRUJVcMUBx37UST/4eh5RayCYEckyLJRSOJflrpH9hCF/oNPOu+99wTj0MYNzXgxivJGyn8VSSmeT7BvqFbCyltY7kPVSz99rZx2Y9MuftC8pP59kLjL2X4P1lOLJk7sVepmw5V22sxv5k6tF7KNyWJaktZpy3pGDkbH/mUmZ4UGaZa4V02GBrJH22h6bs/5OVqHQIcs4TO8wU86rnYmE/V8ypYSMP8pcLe+WE0FlVS3SZ3xk/vhBeZrg4Ta1yZ+0r42UE09Avp4xwp/WC9Utc8VUFhARaTf+fn2D6NOt8s/nGnLFDvXF1/Inrfss5cSpGCd4ztIQ4oRFPL4Vzdp/OvnWVzV/3r+b0uNWWfzDoWOHb0s5SC6P+SqUJTrIoIlI1/MW0+pnn9x1szmPSHcnx9KQ3Vn7RF323pOFFzKk/2/ZRxySRu0qHItsvcDbl/Yo2CD7dJu9hIf3NnBIWuMmypmT0KVmZThl2J3kyP26ZjBlpcmftJNnOCStm/Y2oPkFkmUtkVZJ38lfRQ9zZQ5a2k0e029N39DOPQ+5ov2EJtHK6hSH8emTsiatjM8HLFm0c8fh55NqIq0VavyYwwSv5tXyJe1P33JJWg+tR81zKVIlvSOX3NnN4426QaaglXbwmXi7s4yg89YGQ8bRysvC46sWU0epDEFbfexdPklLt9BOr8fYJ1O0jlZifFaZX5u1ztFJy+f19bSpinb6lJeRKLYV1Cpr5lNhlR84Mmxpe/lt3WymXsFC5EnIImqtXeZUZd3f33ZQ0DI2ctxc5nNq12Ai0iQoKo5acdxW+FtTkm0ceNBum8/wC5qhhzpANhr9HCKWjafOHuO4pUFX840B5Wzd1RKu6xFuoP7s695GlsQkaKiDiDwfE4Zis8XO4arSq3s479d8njZxiGhWIEnixlLr0HKUcw1erzprY8xyG5rruW+gu3Y99VrGIEdSetdWUQuvIZ13LRoe7bt1oF1aB1ph1b/aWg38bcmnXo8e0yElCfOiFl+vM6rSYNj5w6Gv8gtY3SAZF07WNbfUbzE4R2Y29apiApAiaZZqqQW40Zmrfx/98uDpiz9lVVRU3Kx98PjvuVOX/tZTXGlwKtP71ILSYuKtZLH0R8hVkwGeTdoDejm9igRJF08vw68Qr2f9nl5KM5AfW5oGS+ilaEa+xIajyK/RJLCJdyq9HLOQMMG5kISkYpTARgG+9JKsQMYEk+Y1FNmx1Zs6xmo+aBs8aRHcopeObhmSY7vhnvTSfIAdzwymY/SyCcEHUnaZq6GXZ2er2pOWWUcvGU0sUmOfOYwu+m+2qDtpW3oZBZOMzNhrBmsm9VE1J20ta7UurJlgv8HhjEK1nFFv0ipZ64yEIzADydoiZy6CoUiNRxhF8it03Q5s2CCSNdf1ijqT1sOaY7JkBNIyMCMms6bvXFdj0jpYC22teglZGaiXVrG+fjOrrjPXZGbNQx+J4SgHiBrFmvtap7JOj/QqVkmMGoacOMIwPauE/9ilpqTttrDKYVYUUuKg39AlzDulcvsAAAVhSURBVAWletSTtBN3WKUwGb+ejsuaD6uUjVkqeWEzNTEX5vJB29ORfR6LmB8r3d2mhqR1ZzMLYAqS5ti+3HhmUeeooDe3kb3qfTh6bh2dtRnsbU5a3D1pFzcxbx7jnjKYo2GWd123W/94bmTeuAZzOWQxV8ss8gsH3Tdp/ewFHTwxP00mU1OYhW6s2OqeQWvNYi8JrRuOTMjlbV/2shmWT90xaV0COxN5vYlEyGdoqsAmiJfcrzPtksD2HaOwMIesvH0E1gP6Q6N7Je0doSXul2CIQO7O3HihPTdPZbpP0DK/F9ibm8xAd5r8YrUCNVDY5i5J67MI3KYWK8BwMdFLoBKMFenuELR0s9BmozFBSAEfAXqhFRxz3GC2xz+PCN3hqjBkgNsoVbJGqCoOFLt20Bqzhe5OsxivaTwl6ASXpr25y4XHoQR/O8kCrN3N2bI4wXWQ25tctC26puOO4I0lod+Wu6hFwotul59wxaRdKRS+q0T0pjnDipXC1bK33tWC1pYvfEcp2KHMWcNUq0Q2r8t3qbAVZ4tsAaOPRp07rSU6wVMkbNl/dZWg7d8oso+aZzJans70+mixbTmzXWJgtKtWbMO+OGxG4GTe4RqxTXnqFN/N1lclFjTNPLQHnC84SXQLqLzjSv6E72C+6DZ9vlh4VBkPNr8Q0bDdqFHo0OjWfetFL35QPNZJUIqlqRJ26jRvVuDIQNNn4lc+Gm9pCjJiQqB4lRVllyisG602V/yqtWh4KsxMvZR9O3OyKpWSs101hVKueBY2IlBeH9v8GClVV9T5sQKaCKYrnUVSrjZmLipWmc0DraQtie83O7mrrfHcEUkXqo1AD4dSRU/RSKpDUmB2Wtq6mvKkXaPGZxJqVMGCRhEiNW1O+HB0Z1NemsTr8w9GbSrbkFenSQ1bWvX2eo7vbab67RapOSOhv0O7U/miInREstK6Fi7dbZtb6kqlX5VuThTq0SWEjQmUXq3EWN38kaxTdjM/OVdttOGCFvghaK4jwG8BsUVuXsXxd+WI2baDWfnrbLqUwHhsHutiYVusJbYxFtR2OHTF8EfHK/IybLwIz9kImgv2fITbGrYn724NtzrqBzwyn17/4a2GUtvPrp33MurNNZ9sESnEHsaCu9v39Nn1fd+u+ofXsnOMdp12WgTWFnJd3r9NInZrL++9deh08XkJG3ivOVN8+tCO3vJ19p8taTqGBly8n23hLDJQ7fer86t2bK+padm3p6Skv62+vq2/pGTPvpaamms7qvKr77cP+BSzEtCP5gaCfAYRRQvxwXIv7mJosq9yg+brh2/u3MrE2Vol5szT5zeDUTnuJmz6aKUFLSkZbU43FTx7pXJylpI4FTXizg3S4PgUJeRMNyUBu5CpIG2zxzs3Z+OnJGCndZXwXhipc9rzLBI5U9mzbeoYfw3vmGlSx0xFV60aBfxydii/nK30mY7BdDU/3IIi9IHyxyxQHxGExxkMeX36FC/5YhY6OTkYrU14Knp+uH+Io1MW4j9vPkadwNqImQl+PnGOaSyE6uOXT8S0IBASNvytRL2v3U+4EF994lvB2C8FJL/ARQcvj3hlZIyn5IFzr5GvRMQGR+PtH+wUNTPotdg3/MIj9eP8/eO8vFbqHrdYA3Urvbzi/P3H6SPD/d6IfS1oUhRKCgAAAAAAAAAAAAAAAAAAAAAAAAAAAAAAAAAAAAAAAAAAAAAAAAAAAAAAAAAAAAAAAAAAAAAAAAAAAAAAAAAAAAAAAAAAAAAAAAAAAAAAAAAAAAAAAAAAAAAAAAAAAAAAAAAAAAAAAAAAAAAAAAAAAAAAAAAAAAAAAAAAAP49ygAAc2irldb0niwAAAAASUVORK5CYII=;clipPath=inset(14.33% 15.67% 15.67% 14.33%);" parent="1" vertex="1">
          <mxGeometry x="420" y="740" width="74" height="74" as="geometry" />
        </mxCell>
        <mxCell id="EkTLwEob2Fp1knODdt_H-25" value="Is the model sure?" style="whiteSpace=wrap;html=1;shape=mxgraph.basic.cloud_callout;spacingTop=-14;" parent="1" vertex="1">
          <mxGeometry x="280" y="660" width="140" height="80" as="geometry" />
        </mxCell>
        <mxCell id="EkTLwEob2Fp1knODdt_H-27" value="The model &lt;i&gt;seems&lt;/i&gt; sure" style="whiteSpace=wrap;html=1;shape=mxgraph.basic.cloud_callout;spacingTop=-14;" parent="1" vertex="1">
          <mxGeometry x="460" y="660" width="140" height="80" as="geometry" />
        </mxCell>
        <mxCell id="EkTLwEob2Fp1knODdt_H-28" value="" style="endArrow=none;dashed=1;html=1;rounded=0;entryX=0.989;entryY=0.615;entryDx=0;entryDy=0;entryPerimeter=0;" parent="1" edge="1">
          <mxGeometry width="50" height="50" relative="1" as="geometry">
            <mxPoint x="240" y="647" as="sourcePoint" />
            <mxPoint x="600" y="647" as="targetPoint" />
          </mxGeometry>
        </mxCell>
        <mxCell id="EkTLwEob2Fp1knODdt_H-19" value="What is the capital of Italy?" style="shape=callout;whiteSpace=wrap;html=1;perimeter=calloutPerimeter;" parent="1" vertex="1">
          <mxGeometry x="360" y="370" width="120" height="80" as="geometry" />
        </mxCell>
        <mxCell id="EkTLwEob2Fp1knODdt_H-29" value="" style="shape=image;imageAspect=0;aspect=fixed;verticalLabelPosition=bottom;verticalAlign=top;image=data:image/png,iVBORw0KGgoAAAANSUhEUgAAAmoAAAJqCAMAAACsDJxNAAAC2VBMVEVHcEwAAAAAAAAAAAAAAAAAAAAAAAAAAAAAAAAAAAAAAAAAAAAAAAAAAAAAAAAAAAAAAAAAAAAAAAAAAAAAAAAAAAAAAAAAAAAAAAAAAAAAAAAAAAAAAAAAAAAAAAAAAAAAAAAAAAAAAAAAAAAAAAAAAAAAAAAAAAAAAAAAAAAAAAAAAAAAAAAAAAAAAAAAAAAAAAAAAAAAAAAAAAAAAAAAAAAAAAAAAAAAAAAAAAAAAAAAAAAAAAAAAAAAAAAAAAAAAAAAAAAAAAAAAAAAAAAAAAAAAAAAAAAAAAAAAAAAAAAAAAAAAAAAAAAAAAAAAAAAAAAAAAAAAAAAAAAAAAAAAAAAAAAAAAAAAAAAAAAAAAAAAAAAAAAAAAAAAAAAAAD86isBAQADAwH76SsFBQH15Cp+dRUqJwcMCwIJCAL66Cvv3ilUTg7RwiTayyX55yoREAPy4Snz4inOvyPBsyEZFwQUEgPt3CgwLQi+sCCEexfKuyKflBsnJAeGfRf25Cqwox4kIQYODQJ1axS5rCAXFQQ0MQnSwyT35Sri0ieHfhfq2Sg2MgnYySXQwSNlXhGOhBiXjBqypB5LRg345ioyLwlzahOnmxzGuCJZUw+onB0IBwF2bRQPDgNhWhGCeRbs2yiAdxY4NAo6NgohHgbn1yfo2Cjh0SYeGwUsKQhDPgtXUQ9rYxIuKwiVixlNSA1eVxBxaRNjXBEGBgGKgBehlhuSiBnVxiSMghgbGQVcVRCsoB1QSQ3ZyiXXyCWrnx3dzibbzCU7NwogHQXJuiJRSw69ryBgWRA9OQrczSYSEQNEPwybkBpuZhPUxSTCtCGtoR5aVA8mIwZIQwy3qh9HQQw5NQrAsiFmXxHl1Cd8cxWQhhnMvSNfWBDfzya7rSB6cRW2qB+0px9VTw7DtSGYjRqekxtKRQ2BeBZtZROWixpBPQudkhukmBzEtiF3bhRpYBJAOwu4qx8xj5ZmAAAAX3RSTlMA7vwBBPb4Agn+qYLd1xSX9PALGwbs4Po/PLtvvumAGFumNswWlF1mTSoew5F3wH4vs9pQogyeQlPmDhFg4pkhxld7OTOE8tK5ypyIr0kxJKHOh0Vqq9V0jI8n0GO3ipuHMuEAACAASURBVHja7N37exXFGcBxEm65SYCChFtAQMI1GggS7qgtWkBAFFvFduckIcEkBCPhIoYQDJAAQpJGEELECqiAUHyIeMkDEhDlVp+KlCLKrRba+vSxj39Ca5EK7MyePbt7knN2v5/fITkzb3bPvPPOO82aAQAAAAAAAAAAAAAAAAAAAAAAAAAAAAAAAAAAAAAAAAAAAAAAAAAAAAAAAAAAAAAAAAAAAAAAAAAAAAAAAAAAAAAAAAAAAAAAAAAAAAAAAAAAAAAAAAAAAAAAAAAA2DJyaq9H+naNjZ/RZWDv3kPi4iIi2mpa24iIuLg7evdO7hITH9u15yO9xo1kpGBNi3EJoxOnDRzTSTOp05jkaYmjE8a1YOxg0qjhXSd2i4vULIqM6zax6/BRjCOMnmT90xJT4qI1J0QMHJTUOYoxhc64nvEzO2kO6zQzvuc4xhY/PcySUu/UgmZEyuDOHRhlwqxzbHJLLehaJsd2bs1oe1eftNQIrdG0TUn6GWPuxcdZwvSZ0Voji545PYFkiKdEpcVM0JpIu5g0FqYe0aFfapPF2Y/f3FL6Em2u17rz2HZaCGiX2o9VqYs1T7gvQgsZERM7MyXuNCrpIS3EDBnch3lx3YvzsdSWWgjqFNOPfJub9Bgcp4WsMZMGMEMu8eCMSC2kRcb0YpZc8OYcOtBuJPgWLNm299iGxVVVNTWfL1++8YULF17YuHx5SU3NtariDcf2bluywGf3Zwwcyns0vEU9PsT69C9Y+bfSP3xT9maG8CvjzbJv3ivNW7nAxhIhiVxbGH9Fi+1oadYzd55eXVJWICwomFNSvGlnpqUf2zGW9Wh4GhDfKvDp/vBs6f555cKmpfP2l56dH/hPbxXPhnz4aTMp0EBLz64oahAOOl9Su60u0OTHWIIt3AItsCza7F1ZJQtFEBQUVuadDOzJNrYH8xc2Rk1vG8g3s+OLL+SIIMq5sPh4eiCFbb/gEEx4GJkYQOHGjn2HckUjWHho34cBbMbfM4x5DP08WlJ30/myI6vniEa0bvUR0/m37k+TZwtxCTPNTmZ2Vr5odG9VbjMbbY8mMJuhnN9IjTYbZwdFE7lkOtpSONcXqoZNN5ffyC4+LJpU/uIl5qp1Y9szqyGo+egRZqbvmXf+JELAufpnTJ0h7dmcmQ01U7uYe6CtESFiYdUiU/vwTzG3IaVFVxOZtNn1y0VIeaFitom3aCKHEELIvb39T9n8rDUi5ORW7vD/mz9ENVuoiJrkv/RxT1G5CEk5JS/5L50cREY3NFJpfkvSfLtKRAgrrPab/Yh7jHlucu3H+kul1W0pEyGu7Ji/CrfoeAonm9jP7/BXGlR/UISBhgp/G/J3TGG2mzKX1tVP9z1f3kciTJzwF2yRiWyLNpkByX4CrXqeCCNl9X6CrRtlk03kfuOuCL4D60SYmbfXeIEQkcasN4Fh04wfASuvijBUuN74U00k7dHonnrCOGFbNVeEpYyiFcarg/7MfePqZ9i6qu7bXBG2CrI2G322CbxEG1PrSYbJtOp8EdYu1Rum2AbR47TRtOlmWL3xvAh7lw0L2rq0IQYaxxSjSwYya2cJFygvNjpBOoYN+EbR1+iI59Yy4RJzjLbhWyURB8H/mjbIqMS2eK5wjZwqo2q2QWwdBFn7FIPhP9MgXGXVAYMPO5n996DqYVAD+ep+4TpFr6o/7y9puBBE/Q0WBFvzhQs1HFd/4jvJ5gbNcPWmZ3rWXOFKOZXqpWjEcGIiOEarK4a2XxWudXSZukVWX6IiGO5Rv0r2FQgXyz2m3jl4gLhwXPMnleN98nPhcjXq1cFvOZPsdKSp02l78oXrrd2p/PjxJNicTdzepxzqTQXCA2ZdVA7AXey+O6jDDOXKs1h4RJXyUFUKx9+di7TJyqsFLgvPKFS2DP8NGwdObUYpO79sWyU8ZNVfVOOQTBm4I4aNV+Y4yoWnLN2iGonxxJoDolR1kL4s4TmVqhNV3XiH2tZCVcpR953woBrVuYOHWRvYzXLEqPK254Qn/Vt1Y9pkch72MrcTVZue7wuPWvuFYkhSyeXaibR4xbC+9IbwrDVHVMeR2aOyTrXvuXeW8LDn/qHaDyVirFLVcrxdLjxtaZ5iYKjzsKin4lzx6ZeFx81VJNiiqV+zJEFRCflljvC8jM8UtZLU5VrQX1HdXUqg/eArxZ17nDcIWA/FiZVaouy6YsXZFs5RBbrFrjiF9y4xdsNqxZk9tqgC2yRQlA39kwj7SZaifI1UbiDu5u1pwgb5KD1J/JiXJB/D3UTXrevQ7+Xj9DQRZFYv+b2e75DluD3W9sn7FNETy6Q28sXnJy8TW7pc7tvy/mv0+jO3JHhYOnxnZxFZeuXV8r6SLA3M+LW8lqOAuJLuvW+VDtd04si/odKdz+1vEFVyb0pbekTTB9yvpyZIa24/IqZUDkrrciewQ+XHSOlNeJsLiSi1c9K2WE9wiMqY9DYf337iycgr0nNUE4kmI2nS77iLiSZjr0uH7X7iSW2AtHBoH7Hkj7QDW0fudFRn1KSni7cuJZT8ptekR1uSya6pDJaN14q3iCT/zkt7x/yKmJKbIqvwzjxHHJlxVbYMbcV971LtpXmOr4kicz6Q3h5KnaTMWOnpKGLILOnO+93Eld5w2YbUTnY+ze+GLpJtUHGESicqTjJQzx4kgsxbK+sDPoRXqKl6jhriJxCHqPEw4d5Icrf2ydqAR7IKvUUL2Vm8ZbkET2AKZA2xZtJ47WYPyPrEbyR2AnU0k0SusamyO7JfI3ICJzsb2nIqEXZDc1m3+CNzCZzA5cjuD+1Gj78bRsvuLG4gbqw4/KJkMHsSY9cNGyEZHaohLfq77LAeybXrpksG5wwxY9VZyXDGEmU/GCc5yz77MCFjVcNsycpgAHH2X5Op53CWrMbjLuKsWbME2fliVp92VqGyU8gJRFpryT5BXRnxYsc6SSL3UYq/Zf2tsogWe65IBnW01yNtZHf9oGRzbsWmWUv0ozrC60eQEyV/f88TK3Zd5v6M242SHPzMI1Ls2yvpMz+K7O1t/TlOECj25deRx71FG0nboSvEiRNK9SPb1su9JCVV3iuCUA+ZO+d3f/zgtdrvKzbU1i5+79C59z2w7siVnEGe5N1I6yEpUytydMB//2nlsfX60x3p2099VlTm7jzxNcljzbs3tUhuJ1jkXBfvNYe+3ePTDMw+VXzUveGWs54bDf5vgH6f3edUz74TlbsyNRNO1pe4tXH4Vf3fWSuv9iaS3JZ9wJFBfqNyvWbe/N2F7rwQoZrD7j/qI3mozbM/wBmXD2RqAfr43YVu3AqVPNa8+W0tVnJTtu3hXXotW7Pixc9cWCH3if5zJnox0qI66heGdis6yqt2aFal561zW6iV6R9r3b1Y+v24frbrba65apZpdvjy3PZkkzQnSvJgndoQ/XPF3uUEr9gLtP9tipWusT+/5UXVK7TNi2rzndk4v7g9PX3ZFmsr84/S9e1ivFe3luZwi461pzQnnLSdQi68EfHppfZvxbq068YvVn3eyr9/R/8Jh3ou1MbrW5HaeH2VF2/WHHLc3rO15qZ97q2rbEba8psuWtlhpQHYCf2u+0CvRdqDjj7UNn6hOeeZDzKs/yZHb5nb+ZftBNrc1295/2UXOPNY89ploTP0X8rLHJoS+06dt/qrZNzWudF3xfpeRMPtDeK/cia3FuOxjXZ9M+9qx6bEvhV/tfrG02/qXrD49/O1rkrg2ecs/D/6A8iR3krjSppcfWpxds+t0Jznq7W2V7Vbkq/bYOXFd1TW2PYbR4JfG+ylSGuuz3Sstxhp76VrQZFnafm4TbrJei3Qt+jhiz7H7trSx2yclxoTPaYfxu+sRdrX5gKnbvvxvZsqKir25Z3dM9/cPzljpb5IsSuW/XkgK41LXyo2cUutjFCR/v/xUtfvGN2n/7DcUqRd8P9M+/j06j+/dctMF8yrqf3Xf9i78q+qriuMSh1inJYap6RqmpVl4qoxQ9Nam9jWxBXtsk0z/pC29z4eDx6DiCJqkFEwig8FEQ1qgGBBUBA1OCAOoFW0KFEccCIoxqjRqLV/QTVq1LvfcM999+z7us/5fuEn7t3n7O/de88evu30+Y9GpASzPF0sqUrva/Tr/1R7ushVQ3GgcpFVFXrCmo4aYw+1dT6S6BWJ9R7+M+9S2Frv/+w0kDko9BIcvrXN9/87Vh7yUs151NAeLQTXGSBOk8HH0K3GOgpivFXZRjRf9NFDMD/MaxmIAY2aHV7Juz7Ba7LKcTE71mvAz1il0yz4AB8iDNXgMKlsYw+1w579El6li735FZ5fwfsNvK185WFnp7e7JUxkXM5OX+/0SoMnJ/io7SHKwcCN9tA+Y5t4wZNXWk7o/g5vSy/wRAsDFrXbfAdSjlUU38ivf3DCdcXlbj3d4vvTUYlfYzSXAq81XhCqvQ7fLAY38ZZ7p2SxRWBdy90nUMONmFRj0xtOccY2lsxz6o6+FBj8Od4B/Ch9Uwym9YPiCVsN7mGOO58cS2VPODS7I8ghQzYlmpb4f3xeyBTjyVS4TR36CUG1EfB712iV2D43JWfFhmKvnyaZpr21bzsHph33p5DuywhwvclCUO01sO6NhrPbgCC3jZYAOS5ozwc2o5das8FsooWG+dfT1Qyu+LoQ788+YN1HjFfeapICC/1wyaVy08rPEyNMZVpSq+ofPhXzDfoq3Em7Sb/XEv9c8uVjT6MSf15Z81ebR7SQJv/n78LPgxECUG04WHWyH3voiH7kM97fxgB72MPTQZp/LS32JXNNYtrsfar/KAKXfY0+07r2Bqv2a5Sx/bv76fN550zoUT91vw6iutJvQaS2nWYQLbbKlM77XeDCE+h36cH2lSw/t9GRuik6uqluuhkuUe2Xzq6Izv6u1IxrHWnxu/Z8kymGuC0lot/OAos6NqtkkbHWH6JVZ2eaZkmyeOUdweD8aaunSzU1b8tswwGO7DYTDdkDYtQdqA8/hvnPFpU2ZkQbqROe+YXJv8DPhMuDQp3lHJU6FjUxtj/Yric6zDZis3AqzJ+AbS1T6WPq+dMzdRNtbRGPT4o28Ab9BW2m9e2mXfBeVQzknSjUkRutvl7DS6IGBJW7PUeaan8T6fwJsPtac5LnGqOC22EN0/ndPAHc8HnBQh2iDcmLaqjatDS88bFHWdr1jUWpvCeDtIoV7ugCStW2q2Iipax1Tn5GRkb+lBgXzh3toCmxP2X9q0HmCl1JsOAboYRioPxtnaQAFj4Hm/8SYaqNAgUysyQFsOACoeTBhLNSYNDPQckAPIDsf2+6ualnTS1Vk2BEMdj+P5Ol2hCw1lZJADzsE6jLHUhFxkZKAiCmxwrEEZAco13qFel/TAAR9DFUmTbOHG06CfM+1l4kSrXnwUpPSfdj4jxwwDCiVOsFCk2nSfdjYhqIrFEd2viJ2Q0sEowAY1L/SpNp/YCA/CbpfFx8D/QjaTa5j5YJUKsB06AvkKTaMLDOTOl8XJQJci74h6xVsxygn+Y9klR7B2iGSddbHsR9WYxcwRfS9dhYrvXBGxSZ1hN8J2zB2uC2/Iy63IYp0wPP9dMXN+TWZeS3Yd3vMnDCWIJU+zVY5WKEvXVcTM96IG1sK4+uigkcmu2qii5/0D/lzEpvdyDcE/ayDBKhgqg6hfvOzjkNZk60XAuIFMW0KjAjKPY0/5IqB5he9QFBqk0CXdy89/XISfdyGAmWky2qyH2z+/GbvO8Mxs/0Ikg10FdQy3dTz9R67O6NT7SWaanlHtU6akv53rpChP6Cp7SLXMjXnY3eBAu+jbKOaLP2e7OsMZfrzYFS6Sv0mBbcUbtInnsaudzGb+KEf4gr8SFDdMvO8e5HQRaUXt/xOEwJhZQK33N0LKqVy2/0adqKBfxuD4+gfQWIdfB7h+Ut1aMzawnXGvRMNNiQx+/tLUC043fgIMhtO+0HdOmYzbWgXSuuQJdpzfzeobH09Yi649VFJujUzCt3YTNtjd7xU/yOTLPpqym8Cw6B3L6GQnXPCLPjMs2ue/hUyBFeNuynP21qpHaJ6bwC4sf0i84exqXaEoaZjLzSVCDhPooc1d7QLrGK016eZdA3blyDyTTXTAbTijkZcU57o6eoMa0TaCxo57OVmUyTX1G7G75nGsRyho8RuSCwRo1qv8UKq21im6xTise0UrbJjZw+MOaDG/2KGNX+AlbI5/gX5WTyp9FJxrzf7HfrivjEHUvBjcYRoxrQuwrhowxzmHHqSTnaIdRewmjaD1zMmAoydm8Ro9pkpAjubdYJO2g5gwZWy67zsQMkxt4nRjWg15HE5/0ZyurQW1hUS2eebsznDZpGvT9vCM4UllzmuWFoYg7LmE27yMWO1dT1/N4GKWUu+3iBfTK6A4dpDvb5eWe5GLKU+lgzoEJUiJN28Q2kcTCL2S2L5mLIN9TViD7ECRuFszt0Bw7V6tgt49N8sZy6SulgHG3veewOXYJDtSp2y+Jx6l7eoZ5tv8ZlH53sDkUa3beQ3TInDuep5dsnahd4mcs+GphdfRWHalfZLQvBCXL/nhjVgGLkjUB5qtXgUG0zu2UFXAzZQn3acQ8cGb94doci1awtYbeMjyjYSu1tPiJGtSdxWvPY46RKLg7VUtkt+wzHEGqdoKAy8gSXfaxgd+guHKrtZresmYsh7dR1r57RLrCByz4WM/tzVR4O1fKqmU0r4mIIGF7wDDGq9dEu8CbOPlpVPwFxkNk0PkUnR7S36UCMamAS6Bw+mcaIwHh0uEEYq2URfLKzYH7ez4hRrSOSjt8GVofGYVGtldWy/UjJ2I6SaiipxvUqGtYymnZUUi2QX6CqgzELmoNHtRo2y+ZxEtUk/wJFOhboV1G4X3aOqLM2bSaTabxys+SPBUjBDlWNamTxJ+rs+KKA+BGQD3YghXDv4BqDP9McmFSbztIzxS1fRj6ECxJTqby2MjJLvz/bVVRc1G9ZC7emQfKJKaR0+10smqvXn5UqMk7rLlXbzc0G8ul2pCKiH/G5TZ8/lzmwqeaYrc8yG8fxleSLiCbi9G6zfH+XWDAjMvNfFiv5CVAaORJL8+pH6NGIid+tWoBteuJ+y3laQL7gG7SxJHD1aLLvZ9oi1RLs8ak0aOMrWUO+jeUJ1F+uql72kXdft0a1CKU+ZEWcnAcKgif+cGJUAy3HBzh7dL63ltDQ4kjVMkwN89Zss5Z3C/RG6i3H3XGEFB5BXo7HnpaDU1RLsW2dx8KhMO7jBK9o7/lzYlQD8jAt/D16ZrlbsmXl2lWLYU91G2d2pp/hf+8s6vIwSKJXGrjOaTe2IPuIGhA49ZV2WkbWVpQ5CuRFr4CUXyOSS9sSC7PuOTUk7UrxjAVqwCDlVNjxtHufbQVZhYllSLeNpS7lBwRKbZgf5lFlu2JcKWoAIsUVsysTc2JkHnmB0nFIsssSvmItwBEvEqMampi8hI8gEHkx+aABOPKbEj4AJFw7U2Ma3uAfCa+gP/gnaBTStBEJxrzU0+SohjekUcIbBBjS2B1HZ0fCBwQYPYs4UFvCC8BEb3oDtQeCQ3aU9Ds+ZgE3DCJHtXEysBYIgMohfclRLbijRXKNEo9ih9YLA7qQoxrsBE2WjsfHVepdoHfxNI7+poRXfKv1wmCCVJuEM9dGwitAGXwvglQDdbihKdLz2IDz+z4gSLWB1gk2Sng+gA4iSLWxYJVbpOux8YPWB93GEqRa0BiZcLccm+jXddzF37XLPCldj41DWh+8TJJqf8KZdynhBUAx5G2SVBsGPtYype9x0QZc8AeSVBsN1rlSOh8XN4ALXiBJtWDQXtAknY+LStBYEEySalA5Mks6HxezqStGPgBQIwqdJr2PiagQ6ipEns8FDdL9mPivIKcCd9WRRdL9mAgj39n+E0Av6HHpfkysoz4d4yGASmlBpPQ/HqY6qWuTeqkjUlolAfCQr4hQQXQPbym4Ot8SPj7VRpOlWnBvoEorCYAHIE06oQtZqsH+gpBZkgFYcIVQn1jwKICaAsepZhIawAToS4SpNgis9itJASyAgQXKs4Sp1qWDdrXb7ZIDOLDHa/e+P+FPNTeRNWWKJAEOYAfLcMpMg3pEXOcRSjwCOLlyGGmqDe2mXe9eSQKLQh3dniNNNVizZquXLMBAPZhXMJE204LeA4/xGkkDDCwEG9+dONVgj7ssxUXBMrDx44lTLbgPeIP+W/KAP2LA+7NDF+JUcxPukGdQBCQIFuq4i9+ANS+TROCP9WDbR5CnWtcJYNGLJBN4YxvY9AldyVMtaLgsWsNHMdj0d+kzLWgEWHWSzINyhh2MNlYmC0C1fuAMqsyQZOCL82DLO/QTgGpw2pRSK8nAFyvAlk8SgWlwjLsSIScec4VrlUJ9YLuHKC4oWlPOSTrwRA7Y8P7BQlANyspLXXm+AAryyptiMM1N2beSL/nADzcV4fKfP+Ej2WKAiUKw3T1EYVrQx2DtTtmkxw2zgH6CMkQYqvXsDBa/WVKCF5LBZnfuKQzV3JR3bJdTgDhhQbmARR0P8b4iR7Ng4TLc64ECUa3TKzDe8f+QCLW79sTEzJkzpyEjI6Phzt/WmBjX1AC3GZYPPdlJIKoF/RH+1M4HKLvOLG6/nNBUcfyf4eVzFXdwzju2bF1FU3Ji++IzgWd/OzT4lyIxLWgoEJYPNAVJe9mpy2ebV8eHKCwITTtZWZP7tSNw1gFG/SgdhwpFtaAPwQ7Y5geIc1LiblzYGb5K8QO2kp1hdTGB8EkQB3oKlCfEYlrQeOifQusdk3n0bHRSiGIS5u6t3GJ1j06tIpQojFuMhC+fGCt9EjUjpzZcMR/xS5NnLLBsVYvg72aUaEwLehV65YBVDqlPLPxfe3fCXkV1x3H8XiDLzcpiCLkIBGJIwIRAINYYdhABEftQy0NVOCQhCxBDAogsCXtESyoJWwKyJqBWoEpDHxUxUltQFll8XKgEsA+1KNXWp6+g5bFVYc7MnXuTmTv3zvfzAjJz/ueXuXPOmTlTmSuMs/q13x33T8suChu+vnKnsGhFEfLe8Mdv5vYNRcIE+zasNH+w0Ky8qEWH2S5qjseU3XHR7B/Nd3//ljBP8fW3TU7bdeVJpNgvaY7wHsqB2wsmdkNpzatNwmyzS1aaeOP2lPKuoEe4DaMm2RhXlJjVCS0fviL8ZNEl0z7WcEzYavtbdfeEKC9r5vTC+m25wo9yt5nzLkWLspUhMbaMmvKjjUK8ZkYXvFwp/KzyZTPaeUN54DR7Js3RRXlZE58Z3wMFW4TfbTFhfKB8+VOEdrFp1BxpymIsNv4DZ78WFmD89ktzJP9R0+yaNEcvyWXtrNFdsPlpK0StyvCB6E3lQTveY9uoOaZJ+sDotwyWCEtYYvScYZXymFPsmzRHjHIHLLHD4D54s9UpmVVWtuiVsrKyna35I0ZvAXxYechxOTaOmuNBZUGamo3tgy+8n3fd13js4N7LFRdOtpSun3/HY7nHXzj/17qbew8e+3TfbG/+6BfGtvIdyfR0TzsnzZGj3FRBHLPKqGDn4pI1N/99bq7uP72nZfvSXR+8ZYVxwSblEZ22vqg5HBnC7Ee/N+rIwVtntp6t93metby+9rvG1R4OsdHQRn4sOeJoeyfN8UAPyQSnoZNOc4u1EpB3aEPt+T1tcJj80rqvt6g/ZVk818g2zldu3Seys2weNceTkn743ND/+INq60WVF2v+Nr9tY7228B/yJ8cPGtrEf0mO2NfuSXOEJUkuLYYuha6XTKzlHvr63f3GHK5843f7lM/mGroKumCWsoVJYbaPmmOMS1mXakNfrqzfeUfMDq80eP373Jvv3bb0vdPQnZfmSdYJXAkkTbarghA1hvb8gh+fu1194uzzpjxmcfzI4h8OWrTA0EMdkRS0Nzn7r/6S5anZxr7SsuLLhltXmaI118x8w6R576205TZ8aez+JKck456Q/uTsFskzkuITw5/vKC0tn2m68tJSw5/pOCN4IlJN52xJcSpmwiffSIo5LJyUfS9RNlXPB/V8UiqbNhxFxv6nvVtSnsZ55MaHR6QaJKW8uz0Z+78RHSUF+orgeO9zSSFDRpCwH6XL1oj+SXK8dV62FNadfP1EhyTZC+FzyY6XC2GStU8xgXWC2wyMFxbaxCNQSbboEO0mk67bzZAtSm8nPd74VlbDB8nWHcIzZY/arCM/XqxGyJ5Az2RKTaGbS/ZuLrdr+m/UZDsquX5GspRiZZf/A0RIp/wSWf2SyZXsJzTaH28WBQ3pOxNT+fmUmiwbheYtIUV6XJPNqIUOJFX6J3JF1VVy5NnVRYLJWy+EydZCRXUBSfKkoFpWOTdrn6q6OGUV20WUPA0JjsrqFteLRKkbLH29aDdh0lYoLdtg8qRlovS1OZ6T1F4lkG6CGUuaNGVNlVWt6TPypDH4lG4f/RDzHB483klWt9NvkCg168pkFXM+SpY8SXVJvzDxFzIlt1/24JBwcaOmwxTpPW71fFIlU/6stFyR5EjP7Np0afHOML0mseKGtFhuHofUJSdKWr5jm0nWneZdl5aqawwp0mdgiLSAR+eQrTumbndJCxU6lgzp1Ve+LdWufNJ1W9Iuyes0lATplyav4YfE66fWyKs0jfx4MzSYJK9iIfnytBwlfsmQwCvhE/z1FZOAobJ/9EhWCbwUkymv5A4y9r3l8vpE8TiH1/o55bU8yNjg1ohgq7w6zsdJjve6hcqreYk5j5n5KntHx/OClE9GueT13Gb7udx5V+SVcbGNt49Gq2z7XrLC3klbcUKlMOlkxlczVEp6w9Zr7+WfqJRlConxWftklaJW2/iZopcaVYrC68WtytpElbLus+1uHs2rVEryc6ZuW7ds0FulsGUn7Zm0a2pfIZ3UgbS0TodBKqVt+oMdk1bRpFKO8XeRlda6a7za58cKbTeZm1+Yq1KMu1mOagNZI9W+dPi+zSY9Co6qVeLeWQoRrwAABW5JREFUzuSkLXR2q1V4y3E7Je1qtVodBmSRkjb6DZ2kVuNF1+yTtM+q1KowiF/PtstahOpXiZfb5IYtv2aWWg0iGHu25ZzHRNVPUx8ot0PS5paoFmAISWvbudw01VJX2mA2t7lItfmxzNy2ddZmqBZ7Z12wJ+3b1aqNZ93TAKNdqvW+EtQbgc+9qNpwF89yGGJUqGrJ/7QweJNWv0q12aGJpMIYY+JUi56347ngDNrm5aojT+HsRiaM8mimatlF9W+CMWmn3lNvcRTvERio1wT1yq/+Jvgm074pVm/vSDbmMFR4hHrtxQfNwZW0P57RaOwklgiMnsz9lUb5i98Moq9wzzsyW6Op05hOM15iiEYPHFoWLElbUK3RzNAnyYEZJkdpdELejqDY8q+gsEmjkcP6kAJzxLg1ukFUBsHTHh+v0mrh9BwyYNoqVbpLqyteDfBV0eYSrda5HuY2zUypTq3emPX1MwG8DqX52ynGsXe32bO5D2n1hzhdE6Bj0TkVVZoNi+5H35sta6Jml4jFAfkFl5OHtFsVy2yaP9wfp90tm1oCLWjLbmi3KI4fT38tU03X7pncwArbupJc7fa4u9DnfhuJdg/1ELaSgPk41bmjedptCU1n5OlP/bRHB7fCFhALo6c2eAiaiJ5Mb/tXeKzLQx/NuvKU5RehPF3RhCuZ8YD/JUQLTxpXWvkVvoWbcj01IIqNR61xYesZ7zFsv6216NLoc9uf9Xjy7dLYJ8EqBk7w2F2iqnC9BVcGal7xfOZP8MkoC+nQvaPnLnuxZK3FptE2FHs+6xAGnhYzYrzQoXL5S1bJ2TO1h/Sc8QA+jG29ObbEYXq67sWLSywwRMg/ue1FPWc7bBQda8nhQWSInu4TH33l56m25r2rdJ1oSAYzHFbVZYhLVx+KokK/pe14TaO+c3RF9KdHLazPSCH0pu0d83N2taYxV+f5JSXQm9YWNjRbb9hyG5a2mHjflt+ytFpvzkT2UMad1peV4RS6Pf1+nSnTbevrrlTpPyvnaHYcDQw5keP0d6vI+/SrPxv6yO68+r0NeV6c0LieD9CHASOmpzdhE6K4ccfKPUbErHzh8k1lXp1Kx7R76L/ACtvDIcI7eUUbKk61ZcyeX7mjscnLkwgdzleKA3DmI9nbsN26dzuztaKl1SvzBS1/33qmyvujh6QRtAC9smX0EL7IKzqw9MICn97ve6bl7d3Xi/J8OmyPDPYWClzhKZnCZ6cXn9h6eeO6/To+4D1n/7qNlw+fWFzm+9GiU1gaCPB5tsH3itY6/VHDptcPL62trdt+Ye3a+mUtLcvq1669sL2utnb34dc3NXx0utWHGJDKPFoQ6BPRTlhafARPpAWLXumZ1g1aZk/WOoPK2OEhVsxZaMQv2tM5wSYn5QmrBS06nTFnkEoYHmednMXFjqFHgnlAmpDWwwo5cw5J5StkNkjb8E7+zVmnIal8ad0mwgf3dvrtetabnNns2jYmMslldsxcEyLHMFVrRzH3D882cRgQkcKmVXa+uPXJcI8zPmbjxmf04XKGsH4pQ6KMi1n2oPQERpv4Qf/E5KT4tk5ZfFJyIqtOUOowIrVnxNS2GSxku9P6juWxIGjJ6fZYrDvT5ytcfKY79rEEvpcC3Tdw/RP6Ztw3oGuo7oXzrgPuy+ib0IW7f/goa8TYRxK7Ryb3druTkqZGRcU5OwrR0RkXFTU1Kcnt7p0c2T3xkbH9eXETAAAAAAAAAAAAAAAAAAAAAAAAAAAAAAAAAAAAAAAAAAAAAAAAAAAAAAAAAAAAAAAAAAAAAAAAAAAAAAAAAAAAAAAAAAAAAAAAAAAAAAAAAAAAAAAAAAAAAAAAAAC00n8AT93PntGbhaQAAAAASUVORK5CYII=;clipPath=inset(14.33% 15.67% 15.67% 14.33%);" parent="1" vertex="1">
          <mxGeometry x="240" y="740" width="74" height="74" as="geometry" />
        </mxCell>
        <mxCell id="EkTLwEob2Fp1knODdt_H-30" value="" style="shape=image;imageAspect=0;aspect=fixed;verticalLabelPosition=bottom;verticalAlign=top;image=data:image/png,iVBORw0KGgoAAAANSUhEUgAAAmoAAAJqCAMAAACsDJxNAAADAFBMVEVHcEwAAAAAAAAAAAAAAAAAAAAAAAAAAAAAAAAAAAAAAAAAAAAAAAAAAAAAAAAAAAAAAAAAAAAAAAAAAAAAAAAAAAAAAAAAAAAAAAAAAAAAAAAAAAAAAAAAAAAAAAAAAAAAAAAAAAAAAAAAAAAAAAAAAAAAAAAAAAAAAAAAAAAAAAAAAAAAAAAAAAAAAAAAAAAAAAAAAAAAAAAAAAAAAAAAAAAAAAAAAAAAAAAAAAAAAAAAAAAAAAAAAAAAAAAAAAAAAAAAAAAAAAAAAAAAAAAAAAAAAAAAAAAAAAAAAAAAAAAAAAAAAAAAAAD/AP8Az/+bm5oAAADQz87////SLycODg4KCgp1dHMCEmANDQ0BAQESEhJhYWCZmJdmZmYiIiJycnEVFRVWVlZAQECVlZWqqqorKyt/f3+/v78DAwPOzcxISEjPzs0LCwuampkICAgPDw+9vLuaIh0TExM4ODg2NjYtLSwHBgYaGhm5uLfCwsFfX15YWFjMzMtTUlJwcG9CQkIgICCurq0FBQWZmZigoJ8jIyMyMjLHxsV9fXyWlpUuLi5sbGt4eHdMS0sGBgawr66qqamdnZyJiYjFxMNEQ0NaWlmsq6pNTU16enn9/f1oaGiPj46UlJPKych7GxeDg4I/Pz4eHh61tLNJSUlQUE/LyskpKSkXFxeMjIyzs7LJyMc8PDxiYmKXl5YbGxswMDA0NDSpqKeysbDIx8ZcXFy3trV2dnXBwL+RkJB1dXQjCAcQEBCfnp6ioqK7urmFhYT4+Pjt7e2kpKNlZWVzc3Px8fG+vby2tbWnpqZHR0eCgYCLiopubm2AgH+cnJumpqUmJiX+/v7Av74nJyf8/Pz09PRWVVWHh4aOjo1/f36TkpEZGRnZ2dng4OAdHRwlJSVFRUVUVFNkY2NramqYmJjCKyRWExDq6uocBgWSkpLj4+OoJR8PDw7LLSXd3d3m5ua3KSLT09NMEQ5rGBRjFhI6DQoGAQGTIBudnJsUBAQNAwLNzc0oCQfW1tZ0dHNPizIWAAAAT3RSTlMAMxL6/Q/2RCpA+LXxVQLSBD54Ab8JIScvBbIs1xkMuN04O4tkcpCU5YFpzkEDX5fa6Z8jvMY14ayiHMpu7VGbvo2efEl1p8JNWYYWWkYqsHoHTAAAIABJREFUeNrs3XlwFuUdwPFchCPcR0hMOIWEACFEkEtQQECc6R/7vAl0fO0wnG0Tc5ByyW045JBwX8qlFkIBCwjiFApYQKuFAUq1LVQdBu3A2EFbpvXsdKZICyTv8+z77u67+ybv7vfz9zuw83u/ed9399kjJgYAAAAAAAAAAAAAAAAAAAAAAAAAAAAAAAAAAAAAAAAAAAAAAAAAAAAAAAAAAAAAAAAAAAAAAAAAAAAAAAAAAAAAAAAAAAAAAAAAAAAAEFqruOTkAXHMAU4a0COnZRdxR3x6v6zurRgJHNArq6cIkJj0JLXBZsNa+oVKwyFtGA7sU7eb0NUghx9usEmbESKoQZ0aMyTYYOQgEcpgvkURtuwhfhFal2ZMCuFJ7ScMadCIWSEcbVsKgxI6MS2E8ZnWThiWwOcaLGsxQpjQoDsTg0WdhSm5AxgZLOkTby418URThgYrP9R6CrOGMzVYkGW6NJGYzNhgWnKi+dTECOYG03IslCb8aQwOJrVRf6h9d+ObW1/kX7+54yv1elV/Jgc7fql9t+OL/Ltu3VDFFs/CO8xp0VfR0T/vh/a9m58pXtOZ2cGUZoqK/pUf4Pp/5Bc1YXYw5UE5oi/zJdcVn2sc74Ap8hneX+Ur3Pxael0PhgcT4hICC/r6liq1/C/ZB4XNP9VuKEvLv/5vfqwhHF2l1G6qU8u/IS1OZTM+GDckMKDPdErL/4b9AoSjv3RITS+161JqfRgfjOsX8pjaPdKPtbqMD8b1Duxnh25q0qG1RxkfjGtpPLVfB76Uy1lAaiA1kBqpgdRAaowPpAZSA6mRGkgNpAaQGsIXl5wSG1vXLk2kk3B/pkdabs8K9z+PjU1J5gb1tU7Teo2a57RLz00QLpOQm56UM7xRvaa8xzWvcVrXh7o1EC7XoNvQrmk8F6EGte6c1FB4RsOkzq15z2tAdvfM9sJz2mc248Mtsjpm5gqP6pLRgfc/Uup0aiI8Lb05+6aRkDY0UXhe4mP1KMFhddv5Ce3OrSmTeEKCk+o/TGNVblvP49Oc0qc3eVXXLpYqHNAmJ4G2pK/Rfjz8xW6pzRsSlvLAbvNU6rBTSjei0tOE42z2aZvBd2ewRfkhrWjEHrHp5BTimC67B3ZoMTCelkKJz2JpNGxxJo9wLBxlr9EL/bd39FYVG3npqgK/v6D0Kcv/V/HoKgpMHvdgrSrcL8++xiY9Zer4+XtOHp7li2aTtGqOvlyx5ZMJu0cZPOkjhVrC0cPAemfptLcnlvlcoOiEprTn/MoPZhhYF/0BvVj/mZYVcsGzfHZJpc8lZmn69o+99ouQx3MfJxmrh237h5jt1bc3+VxkrxbchZXjQgxkKIdzLWnVLuhYVz2jFflc5fdaKCXvTAu+t5DEETYrx20HB5vp8R+95XOZuRc1A67Mmxz0bI86lGNWnUeCDHRcxT6f67yrGTNxzudBRvMwrZn9TAtS2vGxLgzN51ugGTXxk+IgrbWlHlO/01rqjrJg3vs+V1qsGXf0mQJas2ffU3+PYMkCd4bme0Mz5dzz+vsG7IcaP572kN4Ui48VurQ030xzqWklR0p1j3mQkFFZejN8Ya/PtSZpZq27pDcnjuUaXY3SWSMoWFHo3tKK1ppOTVu0S2dS/iepyIgUnXXP4yU+F5ulWXFM57hHIiewGRCncy7H9JluLi3kqpTel2i5znkenFMUUmOd89Ou7XN1ab4z1lLTJh7U2Q3lXMlQmqsnN7vQ3aVVXrSYmlZyTT2x4bQUXKz67O4tPpcr06ybpz4HnActB1+PUl6x4j/m9tJMrEopjFfuiKZzlkcwGco/0PmuL83UqpRsjnJsD9KTvj7K6z1XuL+0pVp4dimvD+VaZP2lT+Ut+ma7vzTTq1KSDcrr3lkMNbX3ea3QA6mtCTe1koPshZrQRnUHmOn7PFCalVWpwONrqmO5DdtQlZLqqpUpMz1QmsVVqYB1g6c4x8PwPoFil73gWy+UZnVVqrp3FPNLYC1Upbc3dz7DWZWqbrPq/gp0JeuoGNTBQk+UVmlLaVqJ6vw17pcre0Jxzu2b3vhQK7MnNe2y4rzclpQVqLviL/JFb5QW3qpUVRv5WDNAceHKkiKPpLbYrtRKFNe2PEBb1dWTd58KFniktKWabS7IY/Tz3Jbqhsp/jhs9Ulr4q1JVTJDn+Bh1VRUnX09wfJZXUltjY2pb5eveE7m1QlUD5T/GsV4pzYZVqeDnSXalryrkUzqmvOGV1H5lZ2naNvl+pk3o674O8p9ihVdKs2dVqsopufIsWZ26L1P+pbbPM6mdsTe1ifKvtSEUdlfjLt67bsXuVan7VkrD7MKFevorBTPe9UxqZXantke+H1ZHGtP9/tzpmdLsW5W653VpnBk09n/tpdl8653UFtue2lhpnD1p7H9aS6N5tcgzpa23vTStZIo00F5UdkdnaTJjvPOh9qb9qWk7pYEOpLI7kqTJbPJOaoccSG0Zp3foHOqQLpQq905phWsdSE2TntoyqAWd3ZbiyYuMHVmV0r8AmTOJvtdVmkuJd1Lb60hq86WRdqKz26TbeZdWeie1M46ktnwhF4SqdAscyzTvlFapOUO6duoROouJaZro4UMdZQ6lJh3uSMymtJh60u+KiaxKheu8NNTWlBbTSJpKmXdSW+xQanukoT5KafKdrqZ4p7T1mlOke8V0prSYnMChTGVVKny7A6eaSWnytcZzWJUK3yvScwwoLSbds5dKObQqpb5wimtZYmJyA4eyh1Wp8I0JnGoupTWWnolx0jOpHXYutQrpiRksuMdJu+V7PZPaGedSe1kaK9e495Jm4pkbKGx3rjRtqzTWZM+nlibdOcczJ3uXOZhaiZ/TiALFStflsSplB+kKvRTPpybdQ6HYK6UVnXAyNelepTwFqJl0CwVWpexQzI1KA9UPHMnTrEo5sghan9Q8m9ohUiO1aF+VIjVSq+p9jdRILdpXpUithlIrXPOX2RMuHZhcPOrZ56fOqVhbS67H2jpm8+vl4z4fPfrpjy699uf520gtylNbf27D8cBr/6bOr+knP879cNeBwEWS51eeI7XoTW3tzlLVw3+Ff+q6GnxQ2uEjU5RbJV7duI3UojK1E9OEvgPHttdMaJNWFuhvVfHmo6QWdamtniqCu7qtJs6G3OgPvlWj5ywitahKbfvsAhHShohfBrhscuitKr9AalGU2nvThRHHI3t18/qzhrZq4RxSi5rUrhQLY/x/jWBpm64a3CoxbTmpRUdqy/zCsHkR2xVdPMr4Vl06SmrRkNp5E6UJ8VyEDuluKzWzVVevkFrtT+1FYc7ZiHyunSw1t1VXj5JabU/tst9kahF5xu2mUWa36oP9pFa7U5s0Q5j2E8dLm3XA/FZNILVandr6cvPvqZixxunLCJ6zsFXiU1KrzanttPKeinKHF6kqLG1V6WVSC0ed5JSOHdKSU51Jbb+wxtlnQpYVW9uqHzuSWmpyWoeOKcmuvtq9zsiMwXef/JnQPunxjql2p1ZZbjG1VaudTO2sxa0SK2xOLbVZVlL7hLtPCR2cMdKVvbXtMThBuhfwiGHZtqY2Vu/H2IRlh346d/3qdbv01iA3OHnsVm+p4uDYtW/NXfre1iMf6bxi3CIbU8seNkK6w3XC4B5tXRbagIxE9TD7ZtqY2vZx6l9ifzudd9epNeozi/wLnEvtNeX/OLni7/e26qWyzepDNL+0L7XMLup3IDFjgItCi8uJN/6lEUZqyoO3xXtO5VWzQLkUudKx0n6nqsi/5XT1rapcotqqZ0tsS01ffGacS0Jr0SnXzO+TMFJT/VJ74eO8QKd3KV5X4NgJRZtV34wzpa36Y4UqyfkRSE2I3B6uuPtanX7mfgpbT+2M4l975bd5spdWKF75Q4dKWzpacWb3x4qtyruoOMVuWkRSE+IBF3ywxfYVkUptvOKd+pPqPc37w6fyS3c7lNpvFJ9pytLy8pYrdo0/jExqom9stJfWvaGIVGpF8sUh4/6hfk/zTinOBv/5f9m795gqrjQA4FMVY63VyqZL3KS7VtxkfWa3tmvXtrtJdbutu5vMmQk0Xo0iPkEeEgEpLxEQBBRRQfBRAj7xytNVsAYfqIAWaSkLan0hIknjZmOzfzebRV1bmO+c4T5mzr1n7vf9qSdzz5nzY2bO+c6ZMYfaCnivXsuolbof1mopJ2qjRv9dbGl/HEm4UUuHxypm9an6BC60uG2KtHCYZ29m1urGMvgEwInawOhA6A+2zBxL+FGD488ilR2w9GFTqHWA36m4wa5VAbwwc6NGRgp8XXtpHOFIDaY/1+pQuwSSRXdNoXYW1OqWTq0680Dxb7lRI+OEfbOk32TCk1qX9kgPOnU6VU0CU12nzKD2EDypfa9Xq8/B+TjLjxqZLGqi6iPCk1oEmFTI0etT9Sr45ZNmUKvT/kqvbq2+A5NrSRypkXfFlPY3wpXaBXCkGN1ObQGzWNfNoFbhzP1zIMCuwi95UiOvCnn7/A1fasXgSN/pd+oDcBU0gxoY6R7Sr9VpbflKrtR+J+ItNJDwpXYeJD/1+1QFS3vM+I5aOLgh/le/Vjna8nVcqZFA8aT9dTSrMWFBQWZQywSp6mGohfJYH1kI2vcv/VqB7xPHm0AtKIi512e0eBmqhXRmK8rs4YpSeu3TeKOpRYH5q2GoPfRKarvBegGDqeWdPVk6cLW1l62gv9VkmmjSJn1AWzmTWj/ohpdtLDWQbI/u1O/UIjCLb8YGFnD5+I9+rfaaewPNvvxT3eqP0K5tH0wSLSNFacQGeWgvNGQYSQ3mpb7X79TNXDJTYAqmwMnbermB1DK2D/2AVxTtnYKi5ad+QdmvXa/thtyNBlJrBUeyOzmD9a0Z1Gqcm+1Ts0C+zDhq0dXa2l3tEX5ubRIcFGy4CvvhC5uB2QIw2Nik26c7wS+bsuYbLCGJ1a3VfVCrJYZRs92B1bM3woGBWHfQibCdubSOWGIgNTDQSOjW61TwdXObKZtBk8HPPHFqVEC2G0atj1a/lbDcFKGozXdw3cSJBDgQd7VT4TLudL3Lxw6w28WUdDtcQdKgU6tusIrI5uJrYuDa35pSB3cOzheKGljkbWNstAQzliTY1U5tg+N6ncvaFVA61RRqcLSySGe4IsMnXBcXEcHHYEYypMAm9sPaBLDymrXyHpySaFc7tR7eCh4z+/QEfEq8ZQo1ytrg0+yVTXB3YZGL1MBFO/qUowsCJogkbTxYEtnA6opaMCB3uVfhaCqaNYnVkgUfJk3aMkV5i0gHa7VavnEb3MH8bDargs1gXCDS9ik/cMYusxoKns7DXO5Uyt6UHvrcfBPl1QZ1Jm1jOUCZdCikU6O8RSa42ihqDx1OHhORNry/AWp/htXQ/cZRK6BMJXXdpy3hp1w9yFcmUUuB0wmkMZF2TaPtmHZ1a4Fsczjt9k/wo28IRC0A1D6F1VDwmg2b671Ky6tWwFVr92pp05uFZm05Tqb9Wi68p6fS5ve3G0aNuW4lBfxogEDUxoDaMzviUwOpXae+jePK0HVrTbeor6Ay7y2ldmpau3foYqLOk9T3SmbJhlFjb6kGvzoGqQ27OGwzNcUc2f7DT9NpZfS3/uww8WN6+fQX0oRe+HEu5lImY6FLO1LzTmpKGWvlTEJymbzq3PW+Y6wCN82TpqSzFoc1luztX3X58bZY1keKDkYhNS+lFpHn4trT9a0mUqM+rTkSNpef1JCa2dSUVWGudWqOmdKUwuWu1apSRmpeS01JcqlPs03+SsZxl2rVeACpeTG1lFpX+tT0D2zfdOX2GSIjNS+mptSvd75Pzf9UY2mX89SOyEjNq6k5/TEnQs4q5seFBGdrFReF1LycmvLYyaHBFYVH2Bc7V6t4N7+rjdQ4UFNuZTjTp0kRXKgpW5zaBLx6pYzUvJ+aUh3sxLO3wik+u7jBcWmx/TJSE4Gacs3RD9VF7uYlTSmWjz9w1H9JlIzUxKCmFPY61KfLirlJi9gly5klDn2rdNEmWUZqolBTItY0DtulGX2l3KQpic8ANFc4MPQ8LiM1gagpypnUYS4hsQUKxzj0XED1kWE+jXu3WZaRmljUBnp3zw52l9ZmKlyj44WBAyU6g5aaqkwZqYlHTVHq9/fQF3KEdvCFpqQMUvA4mb6uLqOuPUqWkZqQ1Aae2bb0xWumdJclf3FU4R2tQyGUpR7TXHEbY6seywYGUuNN7dlwdFdOUm9cfNexuLTQhtwYxRNRACxU7606HLc6q+dgV15l6qOLssGB1DxBzRvivMw5kJqPUjslIzWkxicrhdSQGq+sFFJDalyyUueQGlLjmJVCakiNV1YKqSE1blkppIbUzM1KfY3UkJonslJIDanxy0ohNaRmSmxBakjNolkppOaj1D5DakiNT6xCakjNqlkppOab1BJlpIbUuIQdqSE1y2alkJpPUvNEVgqp+SS1VhmpITXLZqWQmk9S24LUkBqX2CojNaRm3awUUvNFajuRGlLjEuG7kBpSs3BWCqn5IDU7UkNqfOIyUkNqVs5KITXfoxYjIzWkxiXSkRpSs3RWCqn5HLWtMlJDapbOSiE1n6O2E6khNS4RsQupITVrZ6WQmq9RsyM1pGbxrBRS8zFqR2WkhtQsnpVCaj5GLR2pITWrZ6WQmm9R2yojNaTGJeqRGlLjEyeRGocIALUPZ7WzmQe1FPudsr3tfUu4xuF1w0d+6umq9ouZPKg1s05OOOisAIGozQO1L2Q19JHJ1CKKzxZtziBeHWEJ2cltZlPbxjpDhaA+8wSiNgLUvpjV0GRw3o28mh1Yt4EIEkFx2/rNpJbMXH4CquInELXXRmlr38ZqaKy2ZIZh0K4lNxKhYlFajmHUwrQHr2SdpjZtyVGzBKImTdZW/0vWg8K/tSU3GgTtXDkRMLK2GUQNPDM0sh6Xe7UlfyuSNOkVAOgMvZ13wMkONgRadR4RNLJCDKG2ERz4c/qZOgNKviIUtUDQ0D76QzsUscgAaBfyicCRt9sAatHgsLX0c1UFCgYKRe1jUP+N/6C1swye6Ea3oYVvCiZCR/RN96c/IuFhL9JOVgG8/C0QipofGBeQYyco7aSckMXuSmuNJcLHN9fdpbYIHjSS8td+qgsUG/lLoahJ78CWVpaC1E0NMZ5a7mJigQgKMZ4aqanXnqzSSljqL2JJk6ZTWpodM7Sd55cT46ltsxFLhC3VeGqk4rLmmTabUmiqYNRGjKUpKhs04C6sCiOGU4tIIpaJtCjDqZGMvkFpm/CvaPOOY0cIRk36A7Wpm0MOPW9lR9J6xhl2h1rKEWKhiOs3nBoh65OuPf97t4ccpBZ4SzRp0phRjLZuyE4rj49kn2A3qIUXEUtFdpTx1J4OD+LL07JZCbtRAcJRk9518fy6QS2ZWCzKTaGmGx+JJ02aM5o3tSvEclHCm9ronwtITZrGmdotYsFYypnafBGlSZMmcKVWEOncjPxSVoAHvkZmUTArlcAsCqYVlj3919D88hr9al7kSm3GJCGpSXPGcaR24hv2FFXlmsSr2n9crrJilbboambRldqiK5hF12iLhr74n5bE27HsycCDuRypjQuQBI1PbPyoMYcENWX3B/pzrfdSexpP2hJY9S/iR832qiRs/JkbtQ6G6oP9Tc/60supqWpTdQ+j/3O4Ufu1JHAEcqIWHk+fHG9v+X9Pej01Vb2xZgd92juKE7WFktDhb+NCbS/1UFk//NiPAlBT1ZQsajOSuFCzTZMEj6kjOVA7QZ37PtKiikVNbSmh5pJyOVAbO1sSPl6abD61BurFoFsVjZraTZ2G3mM+tblvShYIv7dsJlM7WkE5zqNOVTxqaud+2impNpma7UM/yRoxZYK51G5TDhO6TxWRmtr90JinNWeozZgiWSbGf/we6+/pHQOoUYaf2U2qmNTUplrK+MYAar9iLbWZMHuWZKX42cQPKbmDuQsDXnafWgFlncw9VVRq6r0g2J4y96m9HLBwLiU/8KeJkvXi9QWBMwYNR8e97f/78ZJkADW4vYxkquJSg0clJN8AagM3lzf93x70Bz/yvcAFr0tWjdfmLJj6vr//9NkzX7yCxH1qEXBQELtPZGr76uB6UkOoPYt5M2dP9/d/f+qCObMk3wr3qaXDi8BWVWRqaqIBd1AmNd8N96nBSbU0VWxqajlo0mmk5gXU0kC/1ItO7SocUSM1z1MLBwO2mm7RqXXfBUPqKKTmcWr14ArQoIpOTQ0BjdqN1DxODU4NnBGfWgxoVAhS8zg1MCoIbhKfWlO0uyl3pGY8tVDtASpV8amp4G1KaUjN49RWaA/QZwVqS9wdgiI146nFaQ9w3QrUdmuLH0NqHqcGlnWcswK1r8G2UaTmcWrLtAcotgK1nWAzM1LzODWwp81uBWp2UF+k5nFqD7QHuGYFah3a4j1IzePUwOvoZStQy3R3IS5SM54amIFqswI1UDweqXmcWi+YV7cCNTAxXYfUPE4NvGg5zwrUwBTOOqTmcWo5YBPWJfGpXbK5uz8PqRlP7RxYBJEuPjVQB7IdqXmcWivcoCs+tT2gUQeQmsepKeAleJEtolO7EenuDC5SM4Ma/CxGlOjU+kGTKpHa/9q709+oqjCO49OFsaGVSlHAEdlbDEsossWAFDDGGH1x702sYQREFEyxLRAoiAJTpSyyFdFAkdZAXSpgCKgNkLCpWBABNWpYjEuCr/SN8R9QUpVlzrmzdO50njPz/bwmLfP0NzP3nuee5wiI2kl17sAPZkftB6UDEv+kb6KWhKidUAcdHTc7auqdTnAPURMQNWeu8pd5sc3kqLWp2/XjfYSIqCUnappBfiGTo7bRi2F+RC0ZUTu8Sv3C2Wtu1M6oFwQVjURNRNTU7QXXkvSHqVH7WTPXN+697UQtSVFbrxlQ1/KZmVH7rEXzYmYRNSFR042NtBe3mRi1tsW2J0MjiVqSotaoG7y55A/zovbnAd0rOU/UxESt8lvdX+iVFaZF7W3tGdfN1URNTNScau28+vrGt0yK2luXtSf/BA9ZRE1O1Jx3ba21+8yJWuVi/WtYbBE1SVFb6DKnP7h5hRlR+6u1Qv8Kyi8TNVFRUx/GvR62Z4+1SY9a29bdrifWdOgwM6KWxKg5Z21X9R9eOCk1ap/+tOX5D1e5/99rLKImLWpvNtvxqHjajdLsrnf9p8rC/nzXf3pUeYCz/XdFO3D+gyaiJi5qzkfz7bSz9IJF1ORFzZmxKt2SVhGyiJrEqDmXgumVtOB0i6jJjJrzRXpFbbZF1KRGzfmqIo0+01otoiY3as6RpWlznbbTImqSo+ZsXZQeSVtwyCJq3uoeXpKjiUXNWViTDklr2ZNY0ixlwa57xkdtgLK0mWDUnHk7jb8RDTZUJ5g0S7mQGJDxUctSVi2dhH25weykNe+wEqbcH/XO+Kjdo7yjKxPPWuWuo+YGrXx5XeJJUwac2nkZH7XRSk1ecjxw+NQ0Q4PWcMTygPoIfM+Mj1q2UpOPHU+8udHAT7ZpK3+3PLFL+dFdMj5q3XLCa3Lc8ci8GZuNWmWr2DBzv+WRTeE/PKdHxkfNNyq8KHsc7xy+ctaQdbYnal4+YnlnZvjPv4+k+fqEFyXkeKpy+47ZNR9IXtl4quXZ1gvVlqdWhv+WQpLm66c0mZ0k2LdsyzczkuPkrATs2HVuvZUEu8Ormk/SfCOVR5wds3xpCfR9eFWHkDRfkdedqU62QmLS1L5UMUnz3a5cvCw0KmqnJSbtnFLUSSTNl6dUpcmoqG2RGLXzSlF7kTTfHf7wqpwyKmrHJUZN2ezvH0HSfL5h4WU5aFLSPhF5qaaMCJ9Azq65X9lM+bZBUVsmMWnrlb1jU8nZNUOV64o6g6K23YxLtcHkTPcYkd1qTtIqt0qMWi13BfqGe0F4XV4xJ2ovibxUeya8og/SbG+Xr7wH5xgTtXckJk2dyhQgZe2KlcpcNSZq30iM2gtKQYeSsna9lMr8UmlI0lZ8LTBp1epzU6NJ2b/6K6WppivVcSGlnKVk7D9DlNqcpSvVcQeVcpaQsf8o247t+tNmRG21wKTtUeeWDCRj/y933KcUZyZdKc/6n/Z4ljquK1FHVqyjK9UxTerM00Ek7LoB6hP3h0yI2hyBUbuo1jKLhN1QqJRn0ScGdKWOCfxQU7das4PlZhPVt2JIftQkdqXes1m/jSjbr16tHRYftb3yktZYrhTSz772W0xV34zL6Up5sCnPtstI1y3yNAeWb6crFa8rahlzeX4o6uMd9pJ5dKXi7H6usXmoI6rhmhEDm2RH7VVxUVuuKSKDSRWPqFWqOkNXKh4nNYOXJpMsxUDNO/KA5K/QddKSVreGD7XYjNEU6je6UrHbrCkgU2F0snI10+0EP7gmrSsV0gw2z2XYcqxra/YCsZdr0vZKvaE7WnQkqdK6t0BTrLlSe6HCulJNupN3Cx4jVXpFuqGKtUJvDWR1peq0RzUw6crN3YW6em2jK9WRTcbXDLuDTLkZl2ubchsqqyvVoKtbLs+pRTBFO5hY4vNEorpSy7Vl4+HbSO7qo52B/QV7pSI+eKs9v63PXeQpkt452jfodLpS7lZqS9aVJbUoHtYP998m7D5UTleqrlZfMe4+o+nWT1+5Wlnra2K6Uk0uB1IG2JAXVXZ/l3N/l0mK2utCknapWV+tUp7yjuVyze9ymvl+ulLh/nY5itLPhVpMHnc5EDu4U8wFm4yuVF2DW6VuJ0Wxecjt5K8le+lK3fTlucatTkVkKFYj3Wo4/7yMD7bPBewjaJ3vViX2SMXRDM13PdJwg4R9VO8L2Bv1tGuJArQ+4+kaTHY/PnNz6gdiLUx10I7UBl0LNJkuQVz6jnU/q3VBKNVjilK8V6rpvXL36oztS3ri0yVC1uxFT6Y2bCntSjVdnBahNGNZUIv/c21MpFOoq7alcEU3lV2pyw1VkepyJ59pHbley4945Hn92RmpuhtNWVdr4RHNAAAB8UlEQVSqOnSwImJRAlyndew+dKod2YvTP8qkrtRrLyyKUpAy7j07vJYbjFJbu3nbc/s6O2nzUtCVWh+qfSZaLYKs3CbgUb8d1dK1V388kc5dqXPn3/11VfQ6+OlGJdZ772/H5GjNxdC51Vu+64xjXDqpK1XduGvTzJW7W6piq0ApHfYEZfez4xJ8IumqyjtDML7XHWCRI2E9Jna1EUXXom4kxQP3FJKlyPrw5enVCtuUXOLkLmcQq2ke3h1MIFFuCseRD0+Xcx8uIFQ6BcUs23p+K1rCt6g6K+EBZg0lQ1Y/shU2E5LbgWQZeCfxumHMABKRRN0DQTLW/tUZ4DzZZMsr8xM0fxlnrHSGLoOHZfiKbVE2Kegs46aMz9ScjR/EhL7O1a17SWnm5ay0ZCBjX1Jh9MTAg5kTs1GBoaP5m6dOj7zBUyek/X2Cf0LZ4Dw+zgQY0WtS8ZD8wlE5addIH1WYP6R4Uq8R/I3F3Zv2zMvKui0dDM/KyuvJ044AAAAAAAAAAAAAAAAAAAAAAAAAAAAAAAAAAAAAAAAAAAAAAAAAAAAAAAAAAAAAAAAAAAAAAAAAAAAAAAAAAAAAAAAAAAAAAAAAAAAAAAAAAAAAAAAAAAAAAAAAAAAAAAAAAAAAAAAAAAAAAAAAAAAAAABApvgHXfrvrT9h6oUAAAAASUVORK5CYII=;" parent="1" vertex="1">
          <mxGeometry x="370" y="527" width="100" height="100" as="geometry" />
        </mxCell>
        <mxCell id="EkTLwEob2Fp1knODdt_H-14" value="" style="whiteSpace=wrap;html=1;shape=mxgraph.basic.oval_callout;rotation=-180;flipV=0;flipH=1;" parent="1" vertex="1">
          <mxGeometry x="430" y="584" width="150" height="60" as="geometry" />
        </mxCell>
        <mxCell id="EkTLwEob2Fp1knODdt_H-31" value="Rome&lt;br&gt;Confidence: 100%" style="text;html=1;align=center;verticalAlign=middle;whiteSpace=wrap;rounded=0;" parent="1" vertex="1">
          <mxGeometry x="440" y="601" width="130" height="30" as="geometry" />
        </mxCell>
        <mxCell id="EkTLwEob2Fp1knODdt_H-13" value="" style="whiteSpace=wrap;html=1;shape=mxgraph.basic.oval_callout;rotation=-180;" parent="1" vertex="1">
          <mxGeometry x="260" y="584" width="150" height="60" as="geometry" />
        </mxCell>
        <mxCell id="EkTLwEob2Fp1knODdt_H-32" value="Rome" style="text;html=1;align=center;verticalAlign=middle;whiteSpace=wrap;rounded=0;" parent="1" vertex="1">
          <mxGeometry x="270" y="601" width="130" height="30" as="geometry" />
        </mxCell>
      </root>
    </mxGraphModel>
  </diagram>
</mxfile>
